<svg width="34" height="34" viewBox="0 0 34 34" fill="none" xmlns="http://www.w3.org/2000/svg">
<g clip-path="url(#clip0_117_377)">
<rect x="1" y="1" width="32" height="32" rx="16" fill="#6E82AA"/>
<g clip-path="url(#clip1_117_377)">
<path d="M31 21H21V23H31V21Z" fill="black"/>
<path d="M27 25H21V27H27V25Z" fill="black"/>
<path d="M31 18.0001V17.0001C30.9973 14.0959 30.0906 11.2645 28.4059 8.8989C26.7211 6.5333 24.3417 4.7508 21.598 3.79877C18.8543 2.84673 15.8822 2.77237 13.0943 3.586C10.3064 4.39964 7.84085 6.06092 6.03989 8.3393C4.23892 10.6177 3.19183 13.4002 3.04392 16.3006C2.896 19.2011 3.65461 22.0756 5.21445 24.5254C6.7743 26.9752 9.05803 28.8786 11.7487 29.9717C14.4394 31.0647 17.4036 31.2931 20.23 30.6251L19.77 28.6788C18.8622 28.8928 17.9326 29.0006 17 29.0001C16.81 29.0001 16.625 28.9815 16.437 28.9728C14.2671 25.72 13.0826 21.9098 13.0259 18.0001H31ZM28.9585 16.0001H22.9751C22.8638 12.3156 21.9153 8.70488 20.2014 5.44148C22.5635 6.09854 24.6683 7.4621 26.2335 9.34931C27.7987 11.2365 28.7495 13.5572 28.9585 16.0001ZM17.563 5.02738C19.7328 8.2802 20.9173 12.0904 20.9741 16.0001H13.0259C13.0826 12.0904 14.2671 8.2802 16.437 5.02738C16.625 5.01868 16.81 5.00008 17 5.00008C17.19 5.00008 17.375 5.01868 17.563 5.02738ZM13.7986 5.44148C12.0846 8.70488 11.1361 12.3156 11.0249 16.0001H5.04146C5.25037 13.5572 6.20118 11.2365 7.7664 9.34931C9.33162 7.4621 11.4364 6.09854 13.7986 5.44148ZM13.7986 28.5587C11.4364 27.9016 9.33162 26.5381 7.7664 24.6509C6.20118 22.7636 5.25037 20.443 5.04146 18.0001H11.0249C11.1361 21.6845 12.0846 25.2953 13.7986 28.5587Z" fill="black"/>
</g>
</g>
<rect x="1" y="1" width="32" height="32" rx="16" stroke="#6E82AA"/>
<defs>
<clipPath id="clip0_117_377">
<rect x="1" y="1" width="32" height="32" rx="16" fill="white"/>
</clipPath>
<clipPath id="clip1_117_377">
<rect width="32" height="32" fill="white" transform="translate(1 1)"/>
</clipPath>
</defs>
</svg>
