<svg width="34" height="34" viewBox="0 0 34 34" fill="none" xmlns="http://www.w3.org/2000/svg">
<g clip-path="url(#clip0_117_352)">
<rect x="1" y="1" width="32" height="32" rx="16" fill="#6E82AA"/>
<path d="M29.6875 -5.6875H-2.6875V26.6875H29.6875V-5.6875Z" fill="#6E82AA"/>
<path d="M19.0605 19.6055C19.3363 20.1658 19.7649 20.6368 20.2968 20.9641C20.8286 21.2914 21.4422 21.4618 22.0667 21.4555C23.327 21.4555 24.1329 20.8254 24.1329 19.9524C24.1329 18.9118 23.3051 18.5395 21.9176 17.9324L21.1567 17.6064C18.9599 16.671 17.503 15.4997 17.503 13.023C17.503 10.7417 19.2374 9.00387 21.958 9.00387C22.8387 8.94027 23.7187 9.13738 24.4881 9.57062C25.2575 10.0039 25.8824 10.654 26.2847 11.4401L23.9063 12.9606C23.7514 12.5708 23.4817 12.2374 23.1329 12.0044C22.7841 11.7715 22.3728 11.6501 21.9534 11.6563C21.7704 11.638 21.5857 11.658 21.4108 11.715C21.236 11.7721 21.075 11.8649 20.9381 11.9876C20.8011 12.1103 20.6912 12.2602 20.6154 12.4277C20.5396 12.5952 20.4995 12.7767 20.4977 12.9606C20.4977 13.8728 21.0631 14.2428 22.3685 14.8106L23.1293 15.1366C25.7147 16.2455 27.1762 17.3751 27.1762 19.9154C27.1762 22.6546 25.0244 24.1554 22.1349 24.1554C21.0091 24.2271 19.8865 23.9715 18.9028 23.4194C17.919 22.8673 17.116 22.0423 16.5907 21.0439L19.0605 19.6055ZM8.31311 19.8691C8.79064 20.7167 9.22539 21.4336 10.2706 21.4336C11.2696 21.4336 11.901 21.0427 11.901 19.5223V9.17731H14.943V19.5627C14.943 22.7124 13.0931 24.1461 10.4001 24.1461C9.44826 24.1981 8.50292 23.9609 7.68837 23.4656C6.87383 22.9704 6.22823 22.2402 5.83643 21.3711L8.31311 19.8691Z" fill="#0F141E"/>
</g>
<rect x="1" y="1" width="32" height="32" rx="16" stroke="#6E82AA"/>
<defs>
<clipPath id="clip0_117_352">
<rect x="1" y="1" width="32" height="32" rx="16" fill="white"/>
</clipPath>
</defs>
</svg>
