<svg width="32" height="32" viewBox="0 0 32 32" fill="none" xmlns="http://www.w3.org/2000/svg">
<rect width="32" height="32" rx="16" fill="#6E82AA"/>
<path d="M25.0216 11.6057C24.7312 11.5057 24.4302 11.4111 24.1203 11.3217C24.1712 11.1138 24.218 10.9086 24.2595 10.7069C24.9418 7.39491 24.4957 4.72675 22.9724 3.84827C21.5117 3.00593 19.1228 3.88421 16.7102 5.98385C16.4782 6.18575 16.2455 6.39951 16.013 6.62354C15.858 6.47532 15.7033 6.33208 15.549 6.19507C13.0205 3.95 10.486 3.00389 8.96419 3.8849C7.50489 4.72969 7.07273 7.23801 7.6869 10.3768C7.74621 10.68 7.81554 10.9896 7.89393 11.3044C7.53524 11.4062 7.18895 11.5148 6.85762 11.6302C3.89321 12.6638 2 14.2835 2 15.9637C2 17.699 4.03236 19.4395 7.12002 20.4948C7.36369 20.5781 7.61653 20.6568 7.87709 20.7316C7.79251 21.072 7.71895 21.4057 7.6572 21.7311C7.07158 24.8154 7.52891 27.2645 8.98433 28.1039C10.4876 28.9708 13.0106 28.0797 15.4674 25.9323C15.6615 25.7625 15.8564 25.5825 16.0516 25.3938C16.3047 25.6375 16.5573 25.8681 16.8086 26.0844C19.1882 28.1321 21.5385 28.959 22.9926 28.1172C24.4944 27.2478 24.9825 24.6169 24.3488 21.416C24.3004 21.1716 24.2441 20.9218 24.1809 20.6677C24.3581 20.6153 24.532 20.5612 24.7016 20.505C27.9115 19.4414 30 17.7221 30 15.9637C30 14.2775 28.0457 12.6468 25.0216 11.6057ZM24.3254 19.3696C24.1723 19.4203 24.0152 19.4693 23.8551 19.5168C23.5008 18.3949 23.0225 17.202 22.4372 15.9695C22.9957 14.7664 23.4555 13.5887 23.8 12.4742C24.0864 12.557 24.3644 12.6445 24.6323 12.7367C27.2233 13.6287 28.8038 14.9475 28.8038 15.9637C28.8038 17.0461 27.0969 18.4512 24.3254 19.3696ZM23.1754 21.6483C23.4556 23.0637 23.4956 24.3434 23.31 25.3438C23.1433 26.2427 22.8079 26.842 22.3932 27.0821C21.5108 27.5928 19.6238 26.9289 17.5887 25.1776C17.3554 24.9769 17.1204 24.7625 16.8847 24.5357C17.6736 23.6728 18.4621 22.6697 19.2317 21.5556C20.5853 21.4355 21.8641 21.2391 23.0238 20.971C23.081 21.2014 23.1317 21.4274 23.1754 21.6483ZM11.5458 26.9938C10.6837 27.2983 9.99707 27.307 9.582 27.0677C8.69879 26.5582 8.33163 24.5919 8.83246 21.9542C8.88983 21.6521 8.95811 21.3418 9.03681 21.0246C10.1838 21.2782 11.4533 21.4607 12.8101 21.5707C13.5849 22.6609 14.3962 23.6629 15.2137 24.5403C15.0351 24.7127 14.8572 24.8769 14.6802 25.0316C13.5939 25.9812 12.5052 26.6549 11.5458 26.9938ZM7.50688 19.3629C6.14157 18.8963 5.01405 18.2898 4.24119 17.628C3.54672 17.0332 3.1961 16.4428 3.1961 15.9637C3.1961 14.9441 4.71616 13.6437 7.25135 12.7597C7.55896 12.6525 7.88098 12.5514 8.21515 12.4565C8.56552 13.5962 9.02514 14.7878 9.57981 15.9928C9.01797 17.2157 8.55182 18.4263 8.19801 19.5794C7.95977 19.5109 7.72896 19.4388 7.50688 19.3629ZM8.86077 10.1471C8.33457 7.45786 8.68404 5.42919 9.56346 4.92012C10.5002 4.37782 12.5716 5.15103 14.7548 7.08954C14.8943 7.21344 15.0344 7.34313 15.1749 7.47729C14.3614 8.35083 13.5575 9.34533 12.7896 10.429C11.4728 10.5511 10.2122 10.7472 9.05325 11.0097C8.98039 10.7166 8.91585 10.4286 8.86077 10.1471ZM20.9387 13.1295C20.6616 12.6509 20.3772 12.1837 20.0872 11.7292C20.9806 11.8421 21.8366 11.992 22.6404 12.1755C22.3991 12.9489 22.0983 13.7575 21.7442 14.5865C21.4902 14.1043 21.2216 13.6181 20.9387 13.1295ZM16.0134 8.33214C16.5651 8.92987 17.1176 9.59722 17.6611 10.3213C17.1134 10.2954 16.559 10.282 16 10.282C15.4463 10.282 14.896 10.2951 14.3517 10.3205C14.8957 9.6032 15.453 8.93675 16.0134 8.33214ZM11.0565 13.1377C10.7797 13.6176 10.516 14.1012 10.2661 14.5856C9.91772 13.7595 9.61973 12.9472 9.37631 12.1628C10.1752 11.984 11.0271 11.8379 11.9148 11.7271C11.6207 12.1857 11.334 12.6565 11.0565 13.1377ZM11.9404 20.2856C11.0232 20.1833 10.1585 20.0447 9.35982 19.8708C9.60712 19.0724 9.91169 18.2428 10.2674 17.3989C10.518 17.883 10.7827 18.3667 11.0612 18.8477C11.3448 19.3376 11.6387 19.8176 11.9404 20.2856ZM16.0465 23.6796C15.4795 23.0679 14.914 22.3913 14.3618 21.6634C14.8979 21.6845 15.4445 21.6952 16 21.6952C16.5707 21.6952 17.1349 21.6824 17.6902 21.6577C17.145 22.3986 16.5944 23.0762 16.0465 23.6796ZM21.7556 17.3559C22.1299 18.2089 22.4454 19.0342 22.6959 19.819C21.884 20.0042 21.0075 20.1534 20.084 20.2642C20.3746 19.8036 20.6615 19.3283 20.9435 18.8394C21.2287 18.3448 21.4996 17.8495 21.7556 17.3559ZM19.9074 18.2419C19.4697 19.0008 19.0203 19.7252 18.5641 20.4091C17.7333 20.4685 16.8749 20.4991 16 20.4991C15.1287 20.4991 14.2811 20.472 13.4649 20.419C12.9903 19.7262 12.5312 18.9996 12.0963 18.2484C11.6626 17.4992 11.2634 16.7437 10.9017 15.9924C11.2633 15.2394 11.6615 14.483 12.0928 13.7352L12.0927 13.7353C12.5251 12.9855 12.9802 12.2624 13.4504 11.5739C14.2831 11.511 15.137 11.4781 15.9999 11.4781C16.8668 11.4781 17.7219 11.5112 18.5543 11.5747C19.0173 12.2582 19.4693 12.9789 19.9034 13.7288C20.3425 14.4872 20.7458 15.2385 21.1105 15.9754C20.7469 16.7249 20.3445 17.4838 19.9074 18.2419ZM22.3749 4.88454C23.3125 5.42525 23.6771 7.60593 23.088 10.4655C23.0505 10.6479 23.0081 10.8338 22.9622 11.0221C21.8005 10.7541 20.5391 10.5546 19.2184 10.4307C18.449 9.33512 17.6517 8.33907 16.8515 7.47675C17.0666 7.26976 17.2815 7.0724 17.4954 6.88615C19.5626 5.08719 21.4946 4.37692 22.3749 4.88454ZM16 13.4634C17.3809 13.4634 18.5003 14.5828 18.5003 15.9637C18.5003 17.3445 17.3809 18.464 16 18.464C14.6191 18.464 13.4997 17.3445 13.4997 15.9637C13.4997 14.5828 14.6191 13.4634 16 13.4634Z" fill="#2D2D2D"/>
</svg>
