<svg width="34" height="34" viewBox="0 0 34 34" fill="none" xmlns="http://www.w3.org/2000/svg">
<rect x="1" y="1" width="32" height="32" rx="16" fill="#6E82AA"/>
<rect x="1" y="1" width="32" height="32" rx="16" stroke="#6E82AA"/>
<path d="M9.98028 10.2547L12.2409 17.9404L14.5013 10.2547H20.6299V11.0187L18.3223 14.9942C19.1329 15.254 19.746 15.7272 20.1616 16.413C20.5775 17.0991 20.7856 17.9042 20.7856 18.8291C20.7856 19.9728 20.4812 20.934 19.8731 21.7132C19.2649 22.4924 18.4777 22.8823 17.5113 22.8823C16.7836 22.8823 16.1499 22.6514 15.6097 22.1888C15.0692 21.7263 14.6692 21.1003 14.4095 20.3102L15.6875 19.7802C15.8747 20.2583 16.1216 20.6351 16.4283 20.9102C16.7348 21.1856 17.096 21.3235 17.5116 21.3235C17.9477 21.3235 18.3171 21.0792 18.6184 20.591C18.92 20.1024 19.0708 19.5155 19.0708 18.829C19.0708 18.0702 18.9096 17.4828 18.5877 17.0672C18.2129 16.579 17.6257 16.3344 16.8256 16.3344H16.2024V15.5863L18.3847 11.8134H15.7507L15.6008 12.0686L12.3967 22.8803H12.2408L9.90215 15.0548L7.56401 22.8803H7.40828L3.66748 10.2542H5.30428L7.56468 17.9399L9.09268 12.7646L8.34455 10.2544H9.98095V10.2539L9.98028 10.2547Z" fill="#005A9C"/>
<path d="M29.136 10.2549C28.8147 10.2549 28.5262 10.3707 28.3074 10.5929C28.0754 10.8286 27.9462 11.133 27.9462 11.4478C27.9462 11.7626 28.0691 12.0543 28.2943 12.2833C28.5232 12.5153 28.818 12.6414 29.1362 12.6414C29.4474 12.6414 29.7495 12.5154 29.9843 12.287C30.2095 12.0682 30.3324 11.7766 30.3324 11.4485C30.3324 11.1302 30.2064 10.8321 29.9879 10.6099C29.7612 10.3773 29.4626 10.2549 29.1372 10.2549H29.136ZM30.1734 11.4581C30.1734 11.7333 30.0668 11.9886 29.872 12.1771C29.6663 12.3763 29.4111 12.4823 29.1294 12.4823C28.8646 12.4823 28.6028 12.3733 28.407 12.1742C28.2116 11.975 28.102 11.7201 28.102 11.4485C28.102 11.1766 28.2148 10.9115 28.4168 10.7063C28.6056 10.5139 28.8606 10.4115 29.139 10.4115C29.4242 10.4115 29.6791 10.5181 29.878 10.7197C30.0714 10.9114 30.174 11.1694 30.174 11.4581H30.1734ZM29.1694 10.7486H28.6592V12.101H28.9144V11.5245H29.1666L29.4416 12.101H29.7266L29.4247 11.4849C29.62 11.4447 29.7331 11.3125 29.7331 11.1203C29.7344 10.875 29.5478 10.7486 29.1704 10.7486H29.1694ZM29.1227 10.9145C29.3612 10.9145 29.4706 10.9809 29.4706 11.1465C29.4706 11.3053 29.3612 11.3621 29.1288 11.3621H28.9132V10.9145H29.1227Z" fill="black"/>
<path d="M27.1293 10.1841L27.3944 11.7961L26.4558 13.5919C26.4558 13.5919 26.0957 12.8299 25.497 12.4086C24.9929 12.0534 24.6642 11.9761 24.1504 12.0821C23.4905 12.2182 22.7422 13.0071 22.4157 13.9799C22.025 15.1435 22.0212 15.707 22.0073 16.2242C21.9854 17.0539 22.1161 17.5437 22.1161 17.5437C22.1161 17.5437 21.5461 16.4895 21.5516 14.9455C21.5552 13.8431 21.7286 12.8437 22.2385 11.8575C22.6872 10.9903 23.3541 10.4698 23.9461 10.4086C24.5581 10.3455 25.0414 10.6403 25.4154 10.9594C25.8076 11.2949 26.2042 12.0274 26.2042 12.0274L27.1269 10.1841H27.1293Z" fill="black"/>
<path d="M27.2453 19.3053C27.2453 19.3053 26.8305 20.0471 26.5721 20.3327C26.3136 20.6187 25.851 21.1217 25.28 21.3736C24.7089 21.6252 24.4094 21.6723 23.8448 21.6184C23.2809 21.5643 22.7568 21.2377 22.5732 21.1015C22.3896 20.9652 21.9201 20.5643 21.6546 20.19C21.389 19.8157 20.9744 19.0679 20.9744 19.0679C20.9744 19.0679 21.2053 19.8176 21.3504 20.1359C21.4334 20.3192 21.6892 20.8793 22.0525 21.3668C22.3913 21.8215 23.0492 22.6045 24.0489 22.7813C25.0486 22.9584 25.7356 22.5092 25.9057 22.4007C26.0754 22.2921 26.4338 21.9919 26.6609 21.7488C26.8976 21.496 27.1218 21.1728 27.2456 20.9791C27.3365 20.8373 27.4841 20.5504 27.4841 20.5504L27.2454 19.3063L27.2453 19.3053Z" fill="black"/>
</svg>
