<svg width="334" height="334" viewBox="0 0 334 334" fill="none" xmlns="http://www.w3.org/2000/svg">
<path d="M36.7401 201.689L42.5183 197.948C42.5183 197.948 45.3239 183.045 43.2397 169.892C40.3139 151.335 27.7021 144.956 23.1196 146.786C18.5371 148.616 17.4549 154.134 25.7315 164.822C30.6145 171.141 36.8937 184.495 36.7401 201.689Z" fill="#B4D7FF"/>
<g opacity="0.3">
<path d="M36.7401 201.689L42.5183 197.948C42.5183 197.948 45.3239 183.045 43.2397 169.892C40.3139 151.335 27.7021 144.956 23.1196 146.786C18.5371 148.616 17.4549 154.134 25.7315 164.822C30.6145 171.141 36.8937 184.495 36.7401 201.689Z" fill="white"/>
</g>
<path d="M38.8444 194.335H38.7842C38.676 194.318 38.5784 194.26 38.5123 194.173C38.4462 194.085 38.4168 193.976 38.4302 193.867C40.8283 176.499 33.8544 157.515 26.0121 149.853C25.9332 149.776 25.8882 149.67 25.887 149.56C25.8857 149.45 25.9283 149.344 26.0054 149.265C26.0825 149.186 26.1877 149.141 26.2979 149.14C26.4082 149.138 26.5144 149.181 26.5932 149.258C34.5758 157.054 41.6834 176.352 39.2518 193.974C39.2389 194.073 39.1906 194.164 39.1157 194.231C39.0408 194.297 38.9444 194.334 38.8444 194.335Z" fill="white"/>
<path d="M22.191 211.088C21.3226 211.582 18.851 209.678 18.183 209.217C17.0098 208.418 16.0621 207.33 15.4309 206.058C14.7266 204.607 14.493 202.972 14.7629 201.382C14.9018 200.543 15.0982 199.715 15.3507 198.903C15.5845 198.102 15.8116 197.3 16.0187 196.499C16.2997 195.723 16.4179 194.897 16.3661 194.074C16.159 192.431 14.6961 191.282 13.3734 190.286C11.9038 189.191 10.3808 187.741 10.3875 185.764C10.4928 184.228 11.1062 182.771 12.131 181.622C13.0795 180.42 14.2018 179.364 15.0568 178.095C15.7299 177.215 16.0812 176.13 16.0521 175.022C15.9601 174.345 15.7329 173.693 15.3841 173.105C14.7161 171.816 13.7676 170.634 13.2866 169.251C12.8056 167.868 12.8724 166.145 13.9546 165.156C14.8364 164.341 16.159 164.228 17.3547 164.308C18.4786 164.445 19.5591 164.826 20.521 165.423C23.6606 167.167 25.4576 170.888 28.7909 172.23C30.1047 172.644 31.4433 172.974 32.7989 173.219C34.1349 173.573 35.5043 174.261 36.1389 175.497C37.3613 177.942 35.0901 180.954 35.9518 183.546C36.7134 185.844 38.9445 186.719 40.1936 188.79C40.7042 189.704 40.9101 190.757 40.7815 191.796C40.6724 193.552 40.2422 195.272 39.5123 196.873C38.6881 198.534 37.7623 200.142 36.7401 201.689L22.191 211.088Z" fill="#B4D7FF"/>
<g opacity="0.65">
<path d="M22.191 211.088C21.3226 211.582 18.851 209.678 18.183 209.217C17.0098 208.418 16.0621 207.33 15.4309 206.058C14.7266 204.607 14.493 202.972 14.7629 201.382C14.9018 200.543 15.0982 199.715 15.3507 198.903C15.5845 198.102 15.8116 197.3 16.0187 196.499C16.2997 195.723 16.4179 194.897 16.3661 194.074C16.159 192.431 14.6961 191.282 13.3734 190.286C11.9038 189.191 10.3808 187.741 10.3875 185.764C10.4928 184.228 11.1062 182.771 12.131 181.622C13.0795 180.42 14.2018 179.364 15.0568 178.095C15.7299 177.215 16.0812 176.13 16.0521 175.022C15.9601 174.345 15.7329 173.693 15.3841 173.105C14.7161 171.816 13.7676 170.634 13.2866 169.251C12.8056 167.868 12.8724 166.145 13.9546 165.156C14.8364 164.341 16.159 164.228 17.3547 164.308C18.4786 164.445 19.5591 164.826 20.521 165.423C23.6606 167.167 25.4576 170.888 28.7909 172.23C30.1047 172.644 31.4433 172.974 32.7989 173.219C34.1349 173.573 35.5043 174.261 36.1389 175.497C37.3613 177.942 35.0901 180.954 35.9518 183.546C36.7134 185.844 38.9445 186.719 40.1936 188.79C40.7042 189.704 40.9101 190.757 40.7815 191.796C40.6724 193.552 40.2422 195.272 39.5123 196.873C38.6881 198.534 37.7623 200.142 36.7401 201.689L22.191 211.088Z" fill="white"/>
</g>
<path d="M30.5811 206.172C30.5296 206.17 30.479 206.158 30.4322 206.136C30.3854 206.115 30.3433 206.084 30.3085 206.046C30.2737 206.008 30.2467 205.964 30.2293 205.915C30.2119 205.867 30.2043 205.815 30.207 205.764C30.875 190.24 23.527 173.092 18.183 168.116C18.118 168.042 18.0826 167.947 18.0838 167.849C18.0849 167.751 18.1226 167.657 18.1893 167.586C18.256 167.514 18.3471 167.47 18.4447 167.461C18.5424 167.453 18.6396 167.482 18.7174 167.541C24.1416 172.625 31.6098 190.053 30.9552 205.797C30.9503 205.895 30.9093 205.987 30.8402 206.057C30.7711 206.126 30.6787 206.167 30.5811 206.172Z" fill="white"/>
<path d="M28.056 187.194H27.9425C24.2722 186.178 20.5028 185.562 16.7 185.357C16.6486 185.355 16.598 185.343 16.5512 185.322C16.5043 185.3 16.4623 185.269 16.4275 185.232C16.3926 185.194 16.3657 185.149 16.3483 185.101C16.3309 185.052 16.3233 185.001 16.326 184.949C16.3267 184.897 16.3381 184.846 16.3593 184.799C16.3805 184.752 16.411 184.71 16.4492 184.675C16.4873 184.639 16.5322 184.613 16.5811 184.596C16.63 184.578 16.6818 184.572 16.7334 184.575C20.6121 184.777 24.4576 185.398 28.203 186.426C28.301 186.459 28.3822 186.529 28.4295 186.622C28.4768 186.714 28.4866 186.821 28.4568 186.92C28.4302 187.004 28.3763 187.076 28.3036 187.126C28.231 187.175 28.1438 187.199 28.056 187.194Z" fill="white"/>
<path d="M169.458 323.993C254.677 323.993 323.76 284.109 323.76 234.909C323.76 185.709 254.677 145.824 169.458 145.824C84.24 145.824 15.157 185.709 15.157 234.909C15.157 284.109 84.24 323.993 169.458 323.993Z" fill="#809BC1"/>
<path d="M87.4546 196.933C120.14 178.069 173.126 178.069 205.804 196.933C233.506 212.925 237.714 237.341 218.456 255.904L290.366 296.893C294.748 299.425 294.748 303.526 290.366 306.058L283.9 309.792C279.518 312.324 272.544 312.123 268.296 309.351L205.504 265.437C172.772 284.141 120.053 284.067 87.4813 265.263C54.776 246.392 54.776 215.804 87.4546 196.933Z" fill="#E6E6E6"/>
<path d="M100.701 31.0626L95.0364 34.3358C95.0651 34.0874 95.0807 33.8377 95.0831 33.5876V31.9443C95.0831 29.0185 93.0324 27.8361 90.5007 29.2723C89.4097 29.9381 88.4773 30.834 87.7685 31.8976C87.3477 28.2236 84.4686 26.8542 80.9616 28.8715C77.1741 31.0626 74.1079 36.3799 74.1079 40.7553V43.2068C74.0816 44.1895 74.2804 45.1651 74.6891 46.0592L70.0131 48.7779C69.2679 49.2613 68.6485 49.915 68.206 50.6851C67.7634 51.4552 67.5105 52.3196 67.468 53.2068C67.468 54.83 68.6036 55.4847 70.0131 54.6764L100.741 36.9343C101.483 36.4536 102.1 35.804 102.542 35.0389C102.985 34.2738 103.24 33.4148 103.286 32.5322C103.246 30.9089 102.11 30.2543 100.701 31.0626Z" fill="#EBEBEB"/>
<path d="M25.9852 45.7983L29.1782 43.3334V36.2927C29.1782 30.7082 33.6338 24.2286 38.4634 21.443C43.2998 18.6508 47.2209 20.9153 47.2209 26.4931V27.5151C48.2403 25.8638 49.631 24.4731 51.2824 23.4537C54.7626 21.4497 57.5816 23.0729 57.5816 27.0876V27.5552L62.0372 24.9834C64.3284 23.6474 66.1854 24.7296 66.1854 27.3749C66.1077 28.8147 65.6915 30.2159 64.9707 31.4647C64.25 32.7136 63.2449 33.7749 62.0372 34.5625L25.9852 55.3774C23.694 56.7134 21.8369 55.6246 21.8369 52.9793C21.9147 51.5404 22.3309 50.1401 23.0517 48.8924C23.7725 47.6446 24.7776 46.5845 25.9852 45.7983Z" fill="#EBEBEB"/>
<path d="M73.3665 209.211V229.538C73.3665 240.573 80.661 251.582 95.2435 260.032C124.408 276.872 171.703 276.872 200.868 260.032C215.45 251.608 222.745 240.573 222.745 229.538V209.211C222.745 198.175 215.45 187.167 200.868 178.723C171.703 161.883 124.408 161.883 95.2435 178.723C80.661 187.14 73.3665 198.175 73.3665 209.211ZM215.517 209.211C215.517 218.041 209.031 226.645 197.254 233.446C184.228 240.967 166.76 245.109 148.056 245.109C129.352 245.109 111.883 240.967 98.8573 233.446C87.0805 226.645 80.5942 218.041 80.5942 209.211C80.5942 200.38 87.0805 191.776 98.8573 184.975C111.883 177.454 129.352 173.312 148.056 173.312C166.76 173.312 184.234 177.454 197.254 184.975C209.037 191.776 215.517 200.4 215.517 209.211Z" fill="#B4D7FF"/>
<path opacity="0.2" d="M73.3665 209.211V229.538C73.3665 240.573 80.661 251.582 95.2435 260.032C124.408 276.872 171.703 276.872 200.868 260.032C215.45 251.608 222.745 240.573 222.745 229.538V209.211C222.745 198.175 215.45 187.167 200.868 178.723C171.703 161.883 124.408 161.883 95.2435 178.723C80.661 187.14 73.3665 198.175 73.3665 209.211ZM215.517 209.211C215.517 218.041 209.031 226.645 197.254 233.446C184.228 240.967 166.76 245.109 148.056 245.109C129.352 245.109 111.883 240.967 98.8573 233.446C87.0805 226.645 80.5942 218.041 80.5942 209.211C80.5942 200.38 87.0805 191.776 98.8573 184.975C111.883 177.454 129.352 173.312 148.056 173.312C166.76 173.312 184.234 177.454 197.254 184.975C209.037 191.776 215.517 200.4 215.517 209.211Z" fill="white"/>
<path opacity="0.6" d="M222.671 231.435C221.509 238.429 218.429 243.693 206.025 253.372C188.49 267.066 144.088 272.657 118.316 264.154C94.0077 256.138 86.2522 240.446 86.2522 229.685L86.319 223.359C82.5648 218.89 80.5875 214.087 80.5875 209.211C80.5875 204.214 82.665 199.291 86.5995 194.729L86.6864 185.817H85.3036C77.3477 192.918 73.3665 201.061 73.3665 209.197V229.525C73.3665 240.56 80.661 251.569 95.2435 260.019C124.408 276.859 171.703 276.859 200.868 260.019C214.615 252.096 221.883 241.816 222.671 231.435Z" fill="#B4D7FF"/>
<path d="M200.874 178.723C171.703 161.883 124.415 161.883 95.2502 178.723C66.0853 195.563 66.0786 222.864 95.2502 239.705C124.422 256.545 171.703 256.545 200.874 239.705C230.046 222.864 230.039 195.563 200.874 178.723ZM197.26 233.446C184.234 240.967 166.76 245.109 148.062 245.109C129.365 245.109 111.89 240.967 98.8574 233.446C87.0806 226.645 80.5943 218.041 80.5943 209.211C80.5943 200.38 87.0806 191.776 98.8574 184.975C111.883 177.454 129.358 173.312 148.062 173.312C166.766 173.312 184.234 177.454 197.26 184.975C209.037 191.776 215.524 200.386 215.524 209.211C215.524 218.035 209.037 226.645 197.26 233.446Z" fill="#B4D7FF"/>
<path opacity="0.5" d="M200.874 178.723C171.703 161.883 124.415 161.883 95.2502 178.723C66.0853 195.563 66.0786 222.864 95.2502 239.705C124.422 256.545 171.703 256.545 200.874 239.705C230.046 222.864 230.039 195.563 200.874 178.723ZM197.26 233.446C184.234 240.967 166.76 245.109 148.062 245.109C129.365 245.109 111.89 240.967 98.8574 233.446C87.0806 226.645 80.5943 218.041 80.5943 209.211C80.5943 200.38 87.0806 191.776 98.8574 184.975C111.883 177.454 129.358 173.312 148.062 173.312C166.766 173.312 184.234 177.454 197.26 184.975C209.037 191.776 215.524 200.386 215.524 209.211C215.524 218.035 209.037 226.645 197.26 233.446Z" fill="white"/>
<path d="M215.53 209.211C215.487 212.8 214.479 216.312 212.611 219.378C209.652 214.254 204.435 209.445 197.247 205.31C184.234 197.781 166.753 193.64 148.049 193.64C129.345 193.64 111.877 197.781 98.8574 205.31C91.6764 209.445 86.466 214.254 83.4934 219.378C81.6404 216.307 80.6396 212.797 80.5942 209.211C80.5942 200.387 87.0805 191.776 98.864 184.969C111.883 177.461 129.358 173.312 148.056 173.312C166.753 173.312 184.241 177.461 197.254 184.969C209.044 191.776 215.53 200.4 215.53 209.211Z" fill="#B4D7FF"/>
<path opacity="0.3" d="M215.53 209.211C215.487 212.8 214.479 216.312 212.611 219.378C209.652 214.254 204.435 209.445 197.247 205.31C184.234 197.781 166.753 193.64 148.049 193.64C129.345 193.64 111.877 197.781 98.8574 205.31C91.6764 209.445 86.466 214.254 83.4934 219.378C81.6404 216.307 80.6396 212.797 80.5942 209.211C80.5942 200.387 87.0805 191.776 98.864 184.969C111.883 177.461 129.358 173.312 148.056 173.312C166.753 173.312 184.241 177.461 197.254 184.969C209.044 191.776 215.53 200.4 215.53 209.211Z" fill="white"/>
<path opacity="0.6" d="M98.864 184.969C87.0805 191.776 80.5942 200.386 80.5942 209.21C80.6416 212.797 81.6447 216.307 83.5 219.377C86.4793 214.254 91.6897 209.444 98.864 205.309C101.898 203.574 105.05 202.054 108.296 200.76C105.451 201.862 96.7131 204.675 99.8994 196.345C103.687 186.452 122.171 175.737 135.751 173.96C121.783 175.343 108.978 179.137 98.864 184.969Z" fill="#B4D7FF"/>
<path opacity="0.4" d="M197.26 194.181C184.234 186.659 166.759 182.518 148.062 182.518C129.365 182.518 111.883 186.659 98.8572 194.181C89.1445 199.792 83.039 206.632 81.1953 213.813C83.039 220.994 89.1445 227.841 98.8572 233.446C111.89 240.968 129.358 245.109 148.062 245.109C166.766 245.109 184.234 240.968 197.26 233.446C206.98 227.835 213.085 220.994 214.922 213.813C213.092 206.632 206.98 199.792 197.26 194.181Z" fill="white"/>
<path d="M93.8674 218.476C98.0424 221.749 102.779 223.82 107.608 225.463C112.451 227.067 117.411 228.291 122.444 229.124C132.501 230.757 142.701 231.339 152.879 230.861C157.962 230.634 163.052 230.159 168.109 229.478C173.15 228.801 178.144 227.817 183.065 226.532C187.963 225.307 192.7 223.514 197.18 221.188C198.286 220.599 199.357 219.945 200.387 219.231C201.421 218.525 202.401 217.744 203.319 216.893C204.245 216.038 205.072 215.081 205.784 214.041C206.521 212.972 207.082 211.792 207.447 210.547C207.469 211.912 207.243 213.27 206.779 214.555C206.289 215.846 205.648 217.075 204.869 218.216C204.099 219.364 203.222 220.438 202.25 221.422C201.288 222.41 200.264 223.336 199.184 224.194C194.831 227.512 190.006 230.16 184.869 232.05C179.804 233.958 174.58 235.413 169.258 236.398C163.964 237.4 158.607 238.036 153.226 238.302C142.425 238.867 131.602 237.715 121.162 234.889C115.939 233.458 110.895 231.441 106.125 228.877C103.75 227.575 101.492 226.068 99.3784 224.374C98.8507 223.954 98.3564 223.493 97.8487 223.038C97.341 222.584 96.8601 222.123 96.3991 221.636C95.4687 220.655 94.6219 219.598 93.8674 218.476Z" fill="white"/>
<path d="M198.65 252.643C198.74 250.827 199.257 249.057 200.16 247.479C201.063 245.9 202.327 244.557 203.847 243.559C205.276 242.724 206.579 242.637 207.528 243.171L224.174 252.69C225.116 253.231 225.704 254.4 225.711 256.03C225.619 257.846 225.101 259.615 224.198 261.194C223.295 262.772 222.033 264.116 220.514 265.115C219.071 265.957 217.761 266.044 216.813 265.496L200.173 255.983C199.251 255.489 198.657 254.32 198.65 252.643Z" fill="#37474F"/>
<path d="M200.206 256.031C199.251 255.49 198.657 254.321 198.65 252.644C198.674 251.292 198.976 249.959 199.538 248.729L223.459 262.437C222.681 263.531 221.691 264.458 220.547 265.162C219.104 266.004 217.795 266.091 216.846 265.543L200.206 256.031Z" fill="#263238"/>
<path d="M280.854 279.764L227.882 252.771L227.815 252.73C226.586 252.062 224.916 252.183 223.079 253.252C219.324 255.443 216.298 260.733 216.318 265.075C216.318 267.253 217.1 268.776 218.322 269.484L268.108 301.548C269.541 302.455 271.141 303.064 272.814 303.338C274.487 303.613 276.198 303.548 277.845 303.147C279.493 302.747 281.042 302.018 282.402 301.006C283.762 299.993 284.903 298.717 285.759 297.253C286.615 295.79 287.167 294.169 287.383 292.488C287.599 290.806 287.474 289.098 287.016 287.466C286.557 285.834 285.775 284.311 284.715 282.988C283.655 281.665 282.34 280.568 280.847 279.764H280.854Z" fill="#455A64"/>
<path d="M218.329 269.497L268.115 301.561C269.966 302.723 272.087 303.384 274.27 303.48C276.454 303.575 278.624 303.101 280.569 302.105C282.515 301.109 284.167 299.625 285.366 297.797C286.565 295.97 287.268 293.862 287.407 291.681C286.452 295.83 279.598 299.357 271.101 294.607C262.604 289.858 231.128 269.958 216.826 261.722C216.49 262.804 216.315 263.929 216.305 265.062C216.312 267.266 217.1 268.789 218.329 269.497Z" fill="#37474F"/>
<path d="M218.329 269.498C217.087 268.79 216.325 267.267 216.325 265.089C216.325 260.747 219.331 255.456 223.085 253.265C224.922 252.196 226.592 252.083 227.821 252.744L232.497 255.122C231.235 254.454 229.532 254.561 227.641 255.657C223.793 257.901 220.687 263.332 220.707 267.788C220.707 270.019 221.475 271.615 222.745 272.337" fill="#B4D7FF"/>
<path opacity="0.2" d="M222.738 272.336C221.469 271.615 220.734 270.018 220.701 267.787C220.708 266.607 220.89 265.434 221.242 264.307C219.645 263.358 218.155 262.49 216.826 261.722C216.658 262.28 216.526 262.849 216.432 263.425C216.392 263.706 216.359 263.986 216.332 264.267C216.332 264.547 216.298 264.821 216.332 265.088C216.332 267.266 217.113 268.789 218.336 269.497L222.738 272.336Z" fill="black"/>
<path d="M91.6563 300.439L51.5763 280.393L35.6111 287.46L91.6563 300.439Z" fill="#B4D7FF"/>
<g opacity="0.15">
<path d="M91.6563 300.439L51.5763 280.393L35.6111 287.46L91.6563 300.439Z" fill="white"/>
</g>
<path d="M91.6563 300.439L56.3525 276.839L62.6718 267.754L91.6563 300.439Z" fill="#B4D7FF"/>
<g opacity="0.15">
<path d="M91.6563 300.439L56.3525 276.839L62.6718 267.754L91.6563 300.439Z" fill="white"/>
</g>
<path d="M56.3525 276.839L57.0139 283.111L91.6563 300.439L56.3525 276.839Z" fill="#B4D7FF"/>
<g opacity="0.2">
<path d="M56.3525 276.839L57.0139 283.111L91.6563 300.439L56.3525 276.839Z" fill="black"/>
</g>
<path d="M50.6343 275.636C50.7314 275.634 50.8242 275.596 50.8949 275.53C50.9766 275.449 51.0259 275.341 51.0333 275.227C51.0407 275.112 51.0057 274.999 50.9349 274.908L50.1667 273.88C50.1356 273.836 50.0955 273.8 50.0492 273.773C50.0029 273.747 49.9515 273.73 49.8983 273.725C49.8452 273.72 49.7915 273.727 49.7411 273.744C49.6906 273.761 49.6444 273.789 49.6056 273.826C49.5242 273.907 49.4745 274.014 49.4659 274.128C49.4573 274.242 49.4904 274.356 49.5589 274.447C49.8127 274.788 50.0732 275.115 50.3337 275.456C50.3665 275.507 50.4107 275.55 50.4629 275.581C50.515 275.613 50.5737 275.632 50.6343 275.636Z" fill="#455A64"/>
<path d="M47.1141 271.081C46.6376 270.386 46.1767 269.685 45.7314 268.977C45.6711 268.88 45.6481 268.764 45.6665 268.651C45.6849 268.538 45.7435 268.435 45.8316 268.362C45.8731 268.329 45.9213 268.306 45.9728 268.293C46.0244 268.281 46.078 268.28 46.13 268.29C46.1821 268.3 46.2313 268.321 46.2743 268.352C46.3174 268.383 46.3532 268.423 46.3793 268.469C46.8269 269.171 47.2811 269.865 47.7153 270.553C47.7807 270.647 47.8088 270.762 47.794 270.876C47.7791 270.99 47.7225 271.094 47.6352 271.168C47.5703 271.224 47.4872 271.255 47.4014 271.255C47.3437 271.249 47.288 271.23 47.2383 271.2C47.1887 271.17 47.1463 271.129 47.1141 271.081ZM43.5804 265.343C43.1729 264.601 42.7721 263.847 42.3914 263.092C42.339 262.99 42.3258 262.873 42.3541 262.762C42.3824 262.651 42.4503 262.555 42.545 262.491C42.591 262.462 42.6425 262.444 42.6961 262.438C42.7497 262.431 42.8041 262.436 42.8555 262.453C42.9069 262.469 42.9541 262.497 42.9939 262.533C43.0337 262.57 43.0652 262.614 43.0861 262.664C43.4602 263.406 43.8543 264.147 44.2551 264.882C44.312 264.981 44.3305 265.098 44.3071 265.21C44.2837 265.322 44.22 265.422 44.1282 265.49C44.0658 265.528 43.9943 265.549 43.9211 265.55C43.851 265.549 43.7825 265.529 43.7226 265.493C43.6627 265.456 43.6136 265.405 43.5804 265.343ZM40.6011 259.224C40.2671 258.429 39.9331 257.628 39.6526 256.833C39.6116 256.727 39.6107 256.611 39.6501 256.505C39.6895 256.399 39.7665 256.311 39.8663 256.258C39.9161 256.237 39.9697 256.227 40.0237 256.227C40.0778 256.228 40.131 256.24 40.1801 256.263C40.2292 256.286 40.273 256.318 40.3087 256.359C40.3444 256.399 40.3712 256.447 40.3874 256.499C40.6746 257.28 40.9886 258.068 41.3226 258.85C41.3675 258.955 41.3726 259.072 41.3369 259.181C41.3012 259.289 41.2272 259.38 41.1288 259.438C41.077 259.464 41.0198 259.477 40.9618 259.478C40.8835 259.476 40.8075 259.45 40.7434 259.405C40.6793 259.36 40.6298 259.297 40.6011 259.224ZM38.2898 252.758C38.0494 251.923 37.8222 251.074 37.6218 250.253C37.5899 250.144 37.6013 250.027 37.6536 249.926C37.7058 249.825 37.795 249.748 37.9024 249.712C37.9547 249.698 38.0092 249.695 38.0627 249.703C38.1161 249.711 38.1673 249.731 38.213 249.759C38.2587 249.788 38.2981 249.826 38.3285 249.871C38.359 249.915 38.3799 249.966 38.39 250.019C38.5838 250.834 38.8042 251.662 39.058 252.484C39.092 252.591 39.0849 252.708 39.038 252.81C38.9911 252.913 38.9078 252.994 38.8042 253.038H38.684C38.5969 253.04 38.5117 253.013 38.4408 252.963C38.3698 252.912 38.3169 252.841 38.2898 252.758ZM36.7401 246.004C36.6065 245.156 36.4862 244.288 36.386 243.426C36.3665 243.315 36.3913 243.201 36.455 243.109C36.5188 243.016 36.6164 242.953 36.7267 242.932C36.8362 242.924 36.9443 242.96 37.028 243.031C37.1116 243.102 37.1641 243.203 37.1743 243.312C37.2678 244.161 37.388 245.016 37.5216 245.851C37.5441 245.959 37.5241 246.073 37.4657 246.167C37.4073 246.261 37.315 246.33 37.2077 246.358H37.1342C37.0379 246.353 36.9462 246.316 36.8744 246.251C36.8027 246.187 36.7553 246.1 36.7401 246.004ZM36.0721 239.084C36.0721 238.416 36.032 237.748 36.032 237.033V236.472C36.0293 236.418 36.0374 236.363 36.0557 236.312C36.0741 236.261 36.1024 236.213 36.139 236.173C36.1756 236.133 36.2198 236.1 36.2691 236.077C36.3183 236.054 36.3717 236.04 36.4261 236.038C36.5366 236.046 36.6393 236.098 36.7118 236.182C36.7844 236.266 36.8209 236.375 36.8136 236.485V237.033C36.8136 237.701 36.8136 238.369 36.8136 239.037C36.8229 239.148 36.7883 239.259 36.7171 239.345C36.646 239.431 36.5439 239.486 36.4328 239.498C36.3325 239.485 36.2404 239.436 36.1739 239.359C36.1075 239.283 36.0712 239.185 36.0721 239.084ZM36.5998 232.611C36.4905 232.591 36.3928 232.53 36.327 232.441C36.2611 232.352 36.232 232.24 36.2458 232.13C36.3192 231.268 36.4128 230.393 36.5196 229.531C36.5237 229.477 36.5389 229.424 36.5643 229.375C36.5897 229.327 36.6247 229.284 36.6673 229.25C36.7099 229.215 36.759 229.19 36.8117 229.175C36.8645 229.16 36.9197 229.157 36.9739 229.164C37.083 229.187 37.179 229.251 37.2414 229.343C37.3037 229.436 37.3276 229.549 37.3079 229.658C37.201 230.507 37.1075 231.368 37.034 232.21C37.0293 232.314 36.9864 232.412 36.9137 232.486C36.8409 232.56 36.7434 232.604 36.6399 232.611H36.5998ZM37.535 225.784C37.428 225.75 37.3381 225.676 37.2835 225.578C37.2289 225.48 37.2137 225.365 37.2411 225.256C37.4148 224.408 37.6152 223.56 37.8356 222.725C37.8456 222.672 37.8665 222.621 37.8971 222.577C37.9276 222.532 37.9671 222.495 38.013 222.467C38.0589 222.438 38.1102 222.42 38.1636 222.413C38.2171 222.405 38.2714 222.409 38.3232 222.424C38.429 222.465 38.5157 222.543 38.5664 222.645C38.617 222.746 38.628 222.863 38.5971 222.972C38.3834 223.787 38.183 224.628 38.0093 225.457C37.9954 225.549 37.9497 225.633 37.8802 225.696C37.8107 225.758 37.7217 225.794 37.6285 225.797L37.535 225.784ZM39.3386 219.177C39.237 219.128 39.1578 219.042 39.1169 218.937C39.076 218.832 39.0765 218.715 39.1182 218.61C39.4054 217.808 39.726 217 40.06 216.212C40.0789 216.162 40.1079 216.116 40.1453 216.078C40.1827 216.039 40.2275 216.009 40.2771 215.989C40.3267 215.969 40.3799 215.959 40.4333 215.961C40.4868 215.962 40.5394 215.975 40.5878 215.998C40.6851 216.056 40.7582 216.148 40.7937 216.256C40.8293 216.364 40.8249 216.481 40.7815 216.586C40.4475 217.361 40.1135 218.149 39.853 218.937C39.8279 219.015 39.779 219.084 39.7132 219.133C39.6473 219.182 39.5677 219.209 39.4856 219.211C39.4345 219.213 39.3839 219.201 39.3386 219.177ZM42.0841 212.972C41.99 212.905 41.9236 212.807 41.8977 212.695C41.8719 212.582 41.8883 212.465 41.9438 212.364C42.3513 211.622 42.7788 210.881 43.213 210.166C43.2387 210.119 43.2743 210.078 43.3173 210.045C43.3604 210.013 43.41 209.99 43.4626 209.979C43.5153 209.967 43.5698 209.967 43.6224 209.979C43.675 209.991 43.7245 210.013 43.7674 210.046C43.8554 210.119 43.9144 210.221 43.934 210.334C43.9536 210.446 43.9324 210.562 43.8743 210.66C43.4401 211.362 43.0193 212.09 42.6252 212.818C42.5934 212.881 42.5448 212.935 42.4847 212.973C42.4247 213.01 42.3554 213.031 42.2845 213.032C42.2133 213.032 42.1436 213.011 42.0841 212.972ZM45.6312 207.3C45.5502 207.221 45.5008 207.115 45.4922 207.002C45.4836 206.889 45.5164 206.777 45.5844 206.686C46.0854 206.018 46.6131 205.35 47.1408 204.722C47.1753 204.681 47.2183 204.648 47.2668 204.626C47.3152 204.603 47.368 204.592 47.4214 204.592C47.4748 204.592 47.5276 204.603 47.576 204.626C47.6245 204.648 47.6675 204.681 47.702 204.722C47.778 204.808 47.82 204.918 47.82 205.033C47.82 205.147 47.778 205.258 47.702 205.343C47.1809 205.964 46.6666 206.606 46.1722 207.267C46.1374 207.316 46.0913 207.356 46.0379 207.384C45.9845 207.412 45.9252 207.427 45.865 207.427C45.814 207.426 45.7638 207.414 45.7178 207.393C45.6717 207.371 45.6308 207.339 45.5978 207.3H45.6312ZM49.9264 202.304C49.8503 202.218 49.8083 202.108 49.8083 201.993C49.8083 201.879 49.8503 201.768 49.9264 201.683C50.5142 201.101 51.1221 200.534 51.73 199.999C51.7701 199.963 51.8174 199.937 51.8687 199.921C51.92 199.905 51.9741 199.901 52.0274 199.908C52.0806 199.915 52.1317 199.933 52.1772 199.961C52.2227 199.99 52.2616 200.028 52.2911 200.073C52.3558 200.167 52.3846 200.282 52.3723 200.396C52.3601 200.509 52.3076 200.615 52.2243 200.694C51.6231 201.215 51.0286 201.769 50.4474 202.337C50.3789 202.408 50.2853 202.449 50.1869 202.451C50.1301 202.45 50.0742 202.436 50.0233 202.411C49.9724 202.385 49.9279 202.349 49.893 202.304H49.9264ZM54.8429 198.075C54.7881 197.976 54.7701 197.861 54.7921 197.749C54.8141 197.638 54.8746 197.538 54.9631 197.467C55.6311 196.986 56.2991 196.539 56.9671 196.131C57.0129 196.104 57.0638 196.087 57.1167 196.081C57.1695 196.076 57.223 196.081 57.2736 196.097C57.3242 196.114 57.3707 196.141 57.41 196.177C57.4493 196.213 57.4805 196.256 57.5015 196.305C57.5534 196.406 57.5665 196.522 57.5381 196.632C57.5098 196.741 57.4421 196.837 57.3479 196.9C56.6799 197.3 56.0119 197.741 55.3439 198.236C55.2813 198.28 55.2066 198.303 55.1301 198.302C55.0619 198.295 54.9967 198.27 54.9406 198.23C54.8846 198.19 54.8395 198.137 54.8095 198.075H54.8429Z" fill="#455A64"/>
<path d="M60.7213 195.19H60.8416C61.1944 195.056 61.5589 194.955 61.9304 194.889C62.04 194.865 62.1361 194.799 62.1983 194.706C62.2606 194.612 62.2843 194.498 62.2644 194.388C62.2602 194.334 62.2452 194.281 62.2203 194.233C62.1955 194.184 62.1611 194.141 62.1194 194.107C62.0777 194.072 62.0295 194.046 61.9775 194.03C61.9255 194.014 61.8709 194.008 61.8168 194.014C61.403 194.091 60.9964 194.203 60.6011 194.348C60.4953 194.39 60.4095 194.47 60.3611 194.573C60.3127 194.676 60.3054 194.794 60.3406 194.902C60.3658 194.984 60.4162 195.056 60.4845 195.107C60.5529 195.159 60.6357 195.188 60.7213 195.19Z" fill="#455A64"/>
<path d="M248.296 41.5156L207.214 28.9238L238.863 50.6672L248.296 41.5156Z" fill="#B4D7FF"/>
<path opacity="0.15" d="M248.296 41.5156L207.214 28.9238L238.863 50.6672L248.296 41.5156Z" fill="white"/>
<path d="M207.214 28.9241L251.429 36.0383L260.861 26.8867L207.214 28.9241Z" fill="#B4D7FF"/>
<path opacity="0.15" d="M207.214 28.9241L251.429 36.0383L260.861 26.8867L207.214 28.9241Z" fill="white"/>
<path d="M251.429 36.038L251.469 46.9665L248.296 41.5156L207.214 28.9238L251.429 36.038Z" fill="#B4D7FF"/>
<path opacity="0.2" d="M251.429 36.038L251.469 46.9665L248.296 41.5156L207.214 28.9238L251.429 36.038Z" fill="black"/>
<path d="M251.469 46.9665L245.149 44.5684L248.296 41.5156L251.469 46.9665Z" fill="#B4D7FF"/>
<path opacity="0.2" d="M248.296 41.5156L245.149 44.5684L246.158 44.9491L248.296 41.5156Z" fill="black"/>
<path d="M259.759 39.592C259.72 39.6205 259.688 39.6565 259.664 39.6978C259.64 39.7392 259.624 39.7849 259.618 39.8324C259.604 39.9465 259.632 40.0617 259.696 40.1572C259.759 40.2528 259.855 40.3224 259.966 40.3535L261.181 40.6808C261.232 40.6968 261.286 40.7016 261.339 40.6946C261.392 40.6877 261.443 40.6693 261.488 40.6407C261.534 40.612 261.572 40.5739 261.601 40.5289C261.63 40.4839 261.648 40.4332 261.656 40.3802C261.672 40.2677 261.647 40.1533 261.585 40.0577C261.524 39.9621 261.431 39.8916 261.322 39.8592L260.093 39.5318C260.036 39.5153 259.976 39.5122 259.918 39.5226C259.861 39.5331 259.806 39.5568 259.759 39.592Z" fill="#455A64"/>
<path d="M265.323 41.082C266.118 41.3492 266.913 41.6297 267.694 41.917C267.801 41.9575 267.891 42.035 267.946 42.1354C268.001 42.2358 268.018 42.3526 267.995 42.4647C267.981 42.5164 267.956 42.5645 267.922 42.6058C267.888 42.6471 267.846 42.6806 267.797 42.704C267.749 42.7274 267.697 42.7403 267.643 42.7416C267.59 42.743 267.536 42.7328 267.487 42.7119C266.712 42.4247 265.924 42.1508 265.136 41.8836C265.029 41.8469 264.938 41.7725 264.882 41.6742C264.825 41.5759 264.806 41.4604 264.829 41.3492C264.844 41.2635 264.892 41.187 264.962 41.1354C265.013 41.097 265.073 41.072 265.136 41.0627C265.199 41.0534 265.263 41.06 265.323 41.082ZM271.609 43.5001C272.39 43.8475 273.159 44.1681 273.92 44.5756C274.023 44.6238 274.105 44.7085 274.149 44.8134C274.194 44.9182 274.198 45.0358 274.161 45.1434C274.141 45.1933 274.11 45.2383 274.072 45.2757C274.033 45.313 273.987 45.3417 273.937 45.36C273.886 45.3783 273.833 45.3857 273.779 45.3818C273.725 45.3779 273.673 45.3626 273.626 45.3371C272.878 44.9697 272.116 44.6157 271.348 44.2817C271.245 44.2348 271.162 44.1524 271.114 44.0495C271.066 43.9465 271.057 43.8298 271.088 43.7206C271.11 43.6485 271.154 43.5853 271.215 43.5402C271.271 43.4987 271.337 43.4731 271.406 43.466C271.476 43.4589 271.546 43.4707 271.609 43.5001ZM277.688 46.5663C278.436 46.9938 279.171 47.4413 279.892 47.9023C279.988 47.9619 280.059 48.0543 280.092 48.1624C280.126 48.2704 280.118 48.3869 280.072 48.4901C280.046 48.5374 280.01 48.5786 279.966 48.611C279.923 48.6434 279.873 48.6663 279.82 48.6783C279.767 48.6903 279.712 48.691 279.659 48.6804C279.606 48.6699 279.556 48.6483 279.511 48.617C278.803 48.1695 278.075 47.7353 277.34 47.281C277.241 47.2258 277.166 47.1359 277.129 47.0287C277.092 46.9215 277.096 46.8044 277.14 46.6999C277.162 46.6442 277.199 46.5957 277.247 46.5596C277.313 46.5175 277.39 46.4957 277.468 46.4968C277.546 46.498 277.623 46.5222 277.688 46.5663ZM283.446 50.3137C284.147 50.8281 284.835 51.3625 285.497 51.8969C285.586 51.9659 285.646 52.0663 285.665 52.1778C285.683 52.2893 285.659 52.4038 285.597 52.4981C285.564 52.5413 285.522 52.5772 285.474 52.6033C285.427 52.6294 285.374 52.6451 285.32 52.6495C285.266 52.6539 285.211 52.6469 285.16 52.6289C285.109 52.6108 285.062 52.5822 285.022 52.5449C284.354 52.0171 283.686 51.4961 283.018 50.9884C282.924 50.9233 282.859 50.8253 282.834 50.7139C282.809 50.6025 282.827 50.4859 282.885 50.3872C282.904 50.3522 282.931 50.3224 282.965 50.3004C283.036 50.2522 283.121 50.2277 283.207 50.2301C283.294 50.2324 283.377 50.2617 283.446 50.3137ZM288.756 54.776C289.384 55.3705 290.006 55.9851 290.607 56.613C290.684 56.6938 290.728 56.8015 290.728 56.9136C290.728 57.0256 290.684 57.1333 290.607 57.2142C290.568 57.253 290.522 57.2837 290.472 57.3047C290.422 57.3257 290.367 57.3365 290.313 57.3365C290.258 57.3365 290.204 57.3257 290.154 57.3047C290.103 57.2837 290.057 57.253 290.019 57.2142C289.431 56.5996 288.816 55.9917 288.202 55.4106C288.118 55.3359 288.066 55.2322 288.056 55.1206C288.046 55.0089 288.079 54.8976 288.148 54.8094L288.202 54.7559C288.28 54.6901 288.381 54.6557 288.483 54.6594C288.585 54.6631 288.683 54.7046 288.756 54.776ZM293.492 59.8661C293.927 60.3939 294.347 60.9283 294.768 61.476L295.102 61.9236C295.172 62.009 295.206 62.1185 295.196 62.2284C295.186 62.3384 295.133 62.44 295.049 62.5114C295.003 62.5427 294.952 62.5646 294.898 62.5759C294.844 62.5871 294.789 62.5875 294.734 62.5769C294.68 62.5663 294.629 62.545 294.583 62.5143C294.537 62.4835 294.498 62.444 294.468 62.3979L294.134 61.957C293.726 61.4226 293.312 60.8949 292.885 60.3738C292.807 60.2941 292.764 60.1875 292.764 60.0766C292.764 59.9656 292.807 59.859 292.885 59.7793C292.927 59.741 292.978 59.7119 293.032 59.6941C293.087 59.6762 293.145 59.6699 293.202 59.6756C293.259 59.6812 293.314 59.6987 293.364 59.7269C293.414 59.7551 293.458 59.7934 293.492 59.8394V59.8661ZM296.999 65.3437C297.098 65.292 297.212 65.2798 297.319 65.3097C297.425 65.3395 297.517 65.409 297.574 65.5041C298.035 66.2389 298.489 66.987 298.91 67.7419C298.939 67.7877 298.959 67.8389 298.968 67.8925C298.977 67.9461 298.975 68.001 298.963 68.0539C298.95 68.1068 298.927 68.1567 298.895 68.2006C298.863 68.2445 298.823 68.2816 298.776 68.3097C298.675 68.355 298.56 68.3602 298.454 68.3243C298.349 68.2883 298.261 68.2139 298.209 68.1159C297.781 67.3745 297.333 66.633 296.873 65.9182C296.813 65.8333 296.788 65.7293 296.802 65.6267C296.815 65.5241 296.867 65.4303 296.946 65.3638L296.999 65.3437ZM300.386 71.3557C300.493 71.3174 300.61 71.3208 300.714 71.3655C300.818 71.4101 300.902 71.4926 300.947 71.5962C301.315 72.3778 301.675 73.1727 302.003 73.9676C302.026 74.0166 302.039 74.0697 302.041 74.1238C302.043 74.1779 302.034 74.2318 302.015 74.2824C301.996 74.333 301.966 74.3791 301.928 74.418C301.891 74.4569 301.846 74.4877 301.796 74.5087C301.687 74.5396 301.57 74.5286 301.469 74.4779C301.367 74.4273 301.289 74.3406 301.248 74.2348C300.927 73.4533 300.58 72.6717 300.213 71.9102C300.167 71.8274 300.151 71.7309 300.17 71.638C300.188 71.5451 300.239 71.4616 300.313 71.4025C300.33 71.3663 300.355 71.3344 300.386 71.309V71.3557ZM302.958 77.7017C303.069 77.6807 303.184 77.7019 303.281 77.7612C303.377 77.8205 303.448 77.9136 303.479 78.0224C303.733 78.8373 303.973 79.6723 304.18 80.5007C304.196 80.552 304.201 80.6062 304.195 80.6596C304.189 80.713 304.171 80.7644 304.143 80.8105C304.115 80.8566 304.078 80.8962 304.034 80.9269C303.99 80.9575 303.939 80.9785 303.887 80.9883C303.775 81.0028 303.662 80.9753 303.569 80.9111C303.477 80.847 303.411 80.7507 303.386 80.6409C303.178 79.826 302.945 79.0043 302.718 78.2094C302.689 78.1325 302.686 78.0488 302.707 77.9698C302.729 77.8908 302.774 77.8204 302.838 77.7685C302.868 77.7214 302.909 77.6824 302.958 77.655V77.7017ZM304.561 84.2815C304.676 84.2787 304.787 84.318 304.874 84.3918C304.962 84.4657 305.019 84.5691 305.036 84.6823C305.169 85.5173 305.276 86.3657 305.363 87.2074C305.369 87.2597 305.365 87.3129 305.349 87.3633C305.334 87.4138 305.308 87.4604 305.273 87.5002C305.239 87.5399 305.196 87.5719 305.148 87.5939C305.1 87.616 305.048 87.6277 304.995 87.6282C304.881 87.627 304.771 87.5832 304.687 87.5054C304.603 87.4276 304.551 87.3214 304.541 87.2074C304.454 86.3857 304.354 85.5574 304.221 84.7358C304.208 84.6666 304.215 84.5954 304.24 84.5296C304.264 84.4639 304.306 84.4059 304.361 84.3617C304.412 84.2988 304.482 84.2542 304.561 84.2348V84.2815Z" fill="#455A64"/>
<path d="M311.876 190.935C310.086 189.866 307.561 190.013 304.755 191.603L253.88 220.995C248.449 224.127 244.04 231.582 244.04 237.641C244.04 240.6 245.096 242.671 246.806 243.653L252.264 246.799C254.047 247.815 256.539 247.654 259.304 246.058L310.186 216.666C315.617 213.533 320.019 206.078 320.019 200.019C320.019 197.08 318.977 195.003 317.28 194.007C316.351 193.5 312.771 191.469 311.876 190.935Z" fill="#E0E0E0"/>
<path d="M254.789 247.16C251.716 247.16 249.805 244.729 249.805 240.821C249.805 234.882 254.141 227.541 259.471 224.468L310.353 195.076C311.663 194.264 313.161 193.803 314.701 193.74C317.774 193.74 319.685 196.172 319.685 200.08C319.685 206.025 315.349 213.359 310.019 216.439L259.137 245.831C257.828 246.644 256.329 247.102 254.789 247.16Z" fill="#FAFAFA"/>
<path d="M314.701 194.047C317.567 194.047 319.377 196.352 319.377 200.059C319.377 205.897 315.116 213.105 309.878 216.091L258.997 245.483C257.738 246.269 256.298 246.715 254.815 246.779C254.181 246.8 253.55 246.676 252.971 246.415C252.392 246.155 251.88 245.765 251.475 245.276C250.526 243.973 250.054 242.383 250.139 240.774C250.139 234.942 254.401 227.734 259.638 224.742L310.52 195.35C311.778 194.564 313.219 194.118 314.701 194.054M314.701 193.386C313.101 193.446 311.544 193.925 310.186 194.775L259.304 224.167C253.873 227.307 249.471 234.755 249.471 240.814C249.471 245.056 251.629 247.494 254.815 247.494C256.415 247.432 257.971 246.955 259.331 246.111L310.212 216.719C315.643 213.586 320.045 206.131 320.045 200.072C320.045 195.831 317.888 193.392 314.701 193.392V193.386Z" fill="#EBEBEB"/>
<path d="M267.28 230.7C267.487 230.312 267.454 229.912 267.28 229.805L265.577 228.823C265.541 228.804 265.501 228.794 265.46 228.794C265.419 228.794 265.379 228.804 265.343 228.823L263.78 229.424L263.265 228.328C263.24 228.274 263.198 228.23 263.145 228.202L261.442 227.213C261.228 227.093 260.874 227.367 260.734 227.821L259.672 231.301C259.614 231.511 259.492 231.697 259.324 231.835L256.953 233.672C256.572 233.96 256.425 234.668 256.699 234.861L258.416 236.104C258.475 236.165 258.518 236.239 258.541 236.321C258.565 236.403 258.567 236.489 258.549 236.572L258.142 239.958C258.109 240.205 258.182 240.372 258.296 240.433L259.999 241.421C260.133 241.495 260.333 241.421 260.513 241.201L262.638 238.489C262.682 238.415 262.744 238.353 262.819 238.31C262.894 238.266 262.979 238.243 263.065 238.242L265.196 238.475C265.53 238.522 265.924 237.908 265.864 237.447L265.457 234.527C265.438 234.312 265.484 234.095 265.59 233.906L267.28 230.7Z" fill="#B4D7FF"/>
<path opacity="0.15" d="M267.26 229.792C267.223 229.775 267.184 229.766 267.143 229.766C267.103 229.766 267.063 229.775 267.026 229.792L264.648 230.7C264.617 230.716 264.584 230.724 264.549 230.726C264.515 230.727 264.48 230.722 264.448 230.709C264.416 230.696 264.387 230.677 264.363 230.653C264.339 230.628 264.32 230.599 264.308 230.567L263.76 229.404L265.323 228.81C265.359 228.792 265.399 228.782 265.44 228.782C265.48 228.782 265.52 228.792 265.557 228.81L267.26 229.792Z" fill="white"/>
<path opacity="0.15" d="M261.355 232.277C261.295 232.486 261.174 232.672 261.008 232.811L258.636 234.642C258.527 234.727 258.44 234.837 258.382 234.962L256.679 233.974C256.74 233.85 256.827 233.741 256.933 233.653L259.304 231.823C259.471 231.686 259.592 231.502 259.652 231.295L261.355 232.277Z" fill="white"/>
<path opacity="0.1" d="M263.139 228.196C262.925 228.055 262.564 228.329 262.417 228.797L261.355 232.277L259.652 231.288L260.714 227.808C260.854 227.354 261.208 227.08 261.422 227.2C261.469 227.2 262.911 228.069 263.132 228.189L263.139 228.196Z" fill="black"/>
<path opacity="0.25" d="M260.099 237.08L258.409 236.105L256.692 234.862C256.492 234.715 256.519 234.315 256.692 233.987L258.396 234.976C258.222 235.297 258.195 235.704 258.396 235.851L260.099 237.08Z" fill="black"/>
<path opacity="0.15" d="M259.852 240.934C259.852 241.181 259.892 241.348 260.019 241.415L258.309 240.427C258.242 240.37 258.192 240.295 258.166 240.211C258.14 240.127 258.139 240.037 258.162 239.952L258.569 236.566C258.586 236.486 258.584 236.403 258.563 236.324C258.543 236.245 258.503 236.172 258.449 236.111L260.139 237.087C260.194 237.146 260.233 237.218 260.254 237.296C260.275 237.374 260.277 237.455 260.26 237.534L259.852 240.934Z" fill="black"/>
<path d="M263.245 228.315L264.308 230.573C264.32 230.605 264.339 230.635 264.363 230.659C264.387 230.684 264.416 230.703 264.448 230.715C264.48 230.728 264.515 230.734 264.549 230.732C264.584 230.731 264.617 230.722 264.648 230.707L267.026 229.798C267.4 229.651 267.554 230.186 267.28 230.7L265.563 233.92C265.458 234.109 265.411 234.325 265.43 234.541L265.837 237.46C265.897 237.921 265.503 238.536 265.169 238.489L263.045 238.228C262.959 238.23 262.874 238.253 262.799 238.296C262.724 238.34 262.662 238.401 262.618 238.476L260.52 241.188C260.179 241.622 259.785 241.468 259.852 240.927L260.259 237.54C260.279 237.457 260.277 237.371 260.253 237.289C260.23 237.207 260.186 237.133 260.126 237.073L258.409 235.837C258.135 235.637 258.289 234.935 258.663 234.641L261.034 232.811C261.202 232.673 261.324 232.486 261.382 232.277L262.444 228.796C262.584 228.242 263.072 227.961 263.245 228.315Z" fill="#B4D7FF"/>
<path opacity="0.5" d="M263.245 228.315L264.308 230.573C264.32 230.605 264.339 230.635 264.363 230.659C264.387 230.684 264.416 230.703 264.448 230.715C264.48 230.728 264.515 230.734 264.549 230.732C264.584 230.731 264.617 230.722 264.648 230.707L267.026 229.798C267.4 229.651 267.554 230.186 267.28 230.7L265.563 233.92C265.458 234.109 265.411 234.325 265.43 234.541L265.837 237.46C265.897 237.921 265.503 238.536 265.169 238.489L263.045 238.228C262.959 238.23 262.874 238.253 262.799 238.296C262.724 238.34 262.662 238.401 262.618 238.476L260.52 241.188C260.179 241.622 259.785 241.468 259.852 240.927L260.259 237.54C260.279 237.457 260.277 237.371 260.253 237.289C260.23 237.207 260.186 237.133 260.126 237.073L258.409 235.837C258.135 235.637 258.289 234.935 258.663 234.641L261.034 232.811C261.202 232.673 261.324 232.486 261.382 232.277L262.444 228.796C262.584 228.242 263.072 227.961 263.245 228.315Z" fill="white"/>
<path d="M279.224 223.82C279.431 223.433 279.391 223.039 279.224 222.932L277.527 221.95C277.49 221.931 277.449 221.921 277.407 221.921C277.365 221.921 277.324 221.931 277.287 221.95L275.73 222.551L275.209 221.455C275.188 221.401 275.148 221.356 275.096 221.328L273.392 220.34C273.179 220.22 272.824 220.493 272.684 220.948L271.575 224.448C271.515 224.656 271.394 224.842 271.228 224.982L268.857 226.813C268.476 227.107 268.329 227.815 268.596 228.008L270.319 229.251C270.378 229.312 270.421 229.387 270.443 229.468C270.465 229.55 270.467 229.636 270.446 229.719L270.046 233.105C270.012 233.352 270.079 233.519 270.193 233.58L271.876 234.535C272.01 234.608 272.203 234.535 272.39 234.314L274.515 231.602C274.559 231.528 274.621 231.467 274.696 231.423C274.771 231.38 274.856 231.357 274.942 231.355L277.066 231.616C277.4 231.656 277.794 231.048 277.734 230.587L277.333 227.668C277.312 227.452 277.359 227.235 277.467 227.047L279.224 223.82Z" fill="#B4D7FF"/>
<path opacity="0.15" d="M279.184 222.925C279.147 222.908 279.107 222.9 279.067 222.9C279.027 222.9 278.987 222.908 278.95 222.925L276.552 223.833C276.521 223.849 276.486 223.857 276.452 223.859C276.417 223.86 276.382 223.855 276.349 223.842C276.317 223.83 276.287 223.811 276.262 223.786C276.237 223.762 276.218 223.732 276.205 223.7L275.664 222.537L277.22 221.943C277.257 221.925 277.299 221.915 277.34 221.915C277.382 221.915 277.423 221.925 277.46 221.943L279.184 222.925Z" fill="white"/>
<path opacity="0.15" d="M273.279 225.403C273.219 225.612 273.098 225.798 272.931 225.938L270.54 227.788C270.431 227.873 270.344 227.983 270.286 228.109L268.596 227.12C268.662 226.998 268.75 226.889 268.857 226.799L271.228 224.969C271.394 224.829 271.515 224.643 271.575 224.435L273.279 225.403Z" fill="white"/>
<path opacity="0.1" d="M275.062 221.321C274.849 221.181 274.488 221.455 274.341 221.922L273.279 225.403L271.575 224.448L272.637 220.967C272.778 220.513 273.132 220.239 273.346 220.359C273.392 220.359 274.835 221.228 275.049 221.341L275.062 221.321Z" fill="black"/>
<path opacity="0.25" d="M272.023 230.199L270.333 229.231L268.616 227.988C268.422 227.841 268.449 227.441 268.616 227.113L270.326 228.102C270.153 228.423 270.126 228.83 270.326 228.97L272.023 230.199Z" fill="black"/>
<path opacity="0.15" d="M271.749 234.054C271.716 234.307 271.789 234.474 271.909 234.541L270.206 233.553C270.092 233.486 270.026 233.325 270.059 233.078L270.467 229.692C270.482 229.612 270.479 229.529 270.458 229.451C270.437 229.372 270.399 229.299 270.346 229.237L272.036 230.206C272.091 230.265 272.13 230.337 272.151 230.415C272.172 230.493 272.174 230.575 272.157 230.653L271.749 234.054Z" fill="black"/>
<path d="M275.163 221.442L276.225 223.7C276.238 223.732 276.257 223.762 276.282 223.786C276.307 223.811 276.337 223.83 276.369 223.843C276.402 223.855 276.437 223.861 276.472 223.859C276.506 223.858 276.541 223.849 276.572 223.834L278.95 222.925C279.324 222.778 279.478 223.313 279.204 223.82L277.487 227.047C277.379 227.235 277.332 227.452 277.354 227.668L277.754 230.587C277.821 231.048 277.427 231.656 277.086 231.616L274.962 231.355C274.876 231.357 274.791 231.38 274.716 231.423C274.642 231.467 274.579 231.528 274.535 231.602L272.41 234.315C272.07 234.749 271.676 234.595 271.742 234.054L272.15 230.667C272.168 230.584 272.165 230.498 272.142 230.417C272.119 230.335 272.075 230.261 272.016 230.2L270.3 228.964C270.026 228.763 270.173 228.062 270.553 227.768L272.925 225.938C273.093 225.8 273.214 225.613 273.272 225.403L274.334 221.923C274.508 221.369 274.996 221.108 275.163 221.442Z" fill="#B4D7FF"/>
<path opacity="0.5" d="M275.163 221.442L276.225 223.7C276.238 223.732 276.257 223.762 276.282 223.786C276.307 223.811 276.337 223.83 276.369 223.843C276.402 223.855 276.437 223.861 276.472 223.859C276.506 223.858 276.541 223.849 276.572 223.834L278.95 222.925C279.324 222.778 279.478 223.313 279.204 223.82L277.487 227.047C277.379 227.235 277.332 227.452 277.354 227.668L277.754 230.587C277.821 231.048 277.427 231.656 277.086 231.616L274.962 231.355C274.876 231.357 274.791 231.38 274.716 231.423C274.642 231.467 274.579 231.528 274.535 231.602L272.41 234.315C272.07 234.749 271.676 234.595 271.742 234.054L272.15 230.667C272.168 230.584 272.165 230.498 272.142 230.417C272.119 230.335 272.075 230.261 272.016 230.2L270.3 228.964C270.026 228.763 270.173 228.062 270.553 227.768L272.925 225.938C273.093 225.8 273.214 225.613 273.272 225.403L274.334 221.923C274.508 221.369 274.996 221.108 275.163 221.442Z" fill="white"/>
<path d="M291.128 216.947C291.328 216.559 291.295 216.165 291.128 216.058L289.404 215.096C289.367 215.079 289.326 215.07 289.284 215.07C289.243 215.07 289.202 215.079 289.164 215.096L287.601 215.697L287.086 214.602C287.065 214.547 287.025 214.502 286.973 214.475L285.269 213.486C285.056 213.366 284.695 213.64 284.561 214.094L283.499 217.574C283.439 217.783 283.318 217.969 283.152 218.109L280.774 219.939C280.4 220.233 280.246 220.935 280.52 221.135L282.237 222.377C282.299 222.436 282.343 222.511 282.367 222.593C282.39 222.675 282.392 222.762 282.37 222.845L281.963 226.232C281.963 226.479 282.003 226.639 282.116 226.706L283.82 227.695C283.96 227.768 284.154 227.695 284.341 227.474L286.458 224.762C286.503 224.687 286.567 224.625 286.643 224.581C286.719 224.538 286.805 224.515 286.893 224.515L289.01 224.776C289.351 224.816 289.745 224.208 289.678 223.747L289.277 220.828C289.256 220.613 289.301 220.396 289.404 220.206L291.128 216.947Z" fill="#B4D7FF"/>
<path opacity="0.15" d="M291.108 216.051C291.07 216.034 291.029 216.026 290.987 216.026C290.946 216.026 290.905 216.034 290.867 216.051L288.496 216.959C288.464 216.975 288.43 216.983 288.395 216.985C288.36 216.986 288.326 216.981 288.293 216.968C288.26 216.956 288.231 216.936 288.206 216.912C288.181 216.887 288.161 216.858 288.148 216.826L287.601 215.663L289.164 215.069C289.2 215.051 289.24 215.041 289.281 215.041C289.321 215.041 289.361 215.051 289.398 215.069L291.108 216.051Z" fill="white"/>
<path opacity="0.15" d="M285.236 218.523C285.175 218.733 285.055 218.921 284.889 219.064L282.517 220.894C282.408 220.981 282.319 221.09 282.257 221.215L280.553 220.226C280.619 220.104 280.708 219.995 280.814 219.906L283.185 218.075C283.351 217.935 283.472 217.749 283.533 217.541L285.236 218.523Z" fill="white"/>
<path opacity="0.1" d="M286.986 214.427C286.772 214.287 286.405 214.561 286.265 215.022L285.236 218.522L283.533 217.54L284.595 214.06C284.735 213.606 285.089 213.332 285.303 213.452C285.35 213.452 286.786 214.321 287.006 214.434L286.986 214.427Z" fill="black"/>
<path opacity="0.25" d="M283.94 223.325L282.257 222.357L280.52 221.108C280.326 220.961 280.346 220.56 280.52 220.232L282.223 221.221C282.056 221.542 282.03 221.949 282.223 222.089L283.94 223.325Z" fill="black"/>
<path opacity="0.15" d="M283.673 227.18C283.639 227.433 283.713 227.6 283.833 227.667L282.13 226.679C282.016 226.612 281.949 226.451 281.976 226.204L282.384 222.811C282.401 222.733 282.4 222.651 282.38 222.574C282.36 222.496 282.323 222.424 282.27 222.363L283.953 223.332C284.006 223.393 284.044 223.464 284.065 223.542C284.085 223.619 284.088 223.701 284.074 223.779L283.673 227.18Z" fill="black"/>
<path d="M287.086 214.568L288.148 216.826C288.161 216.858 288.181 216.888 288.206 216.912C288.231 216.937 288.26 216.956 288.293 216.969C288.326 216.981 288.36 216.987 288.395 216.985C288.43 216.984 288.464 216.975 288.496 216.96L290.867 216.051C291.248 215.904 291.395 216.439 291.128 216.946L289.404 220.173C289.3 220.362 289.256 220.579 289.277 220.794L289.678 223.713C289.745 224.174 289.351 224.782 289.01 224.742L286.893 224.481C286.805 224.482 286.719 224.505 286.643 224.548C286.567 224.591 286.503 224.653 286.458 224.729L284.341 227.441C284 227.875 283.606 227.721 283.673 227.18L284.074 223.793C284.094 223.711 284.093 223.625 284.07 223.543C284.048 223.461 284.006 223.387 283.947 223.326L282.223 222.083C281.956 221.889 282.103 221.181 282.484 220.894L284.855 219.064C285.021 218.924 285.142 218.738 285.203 218.529L286.265 215.049C286.432 214.495 286.919 214.214 287.086 214.568Z" fill="#B4D7FF"/>
<path opacity="0.5" d="M287.086 214.568L288.148 216.826C288.161 216.858 288.181 216.888 288.206 216.912C288.231 216.937 288.26 216.956 288.293 216.969C288.326 216.981 288.36 216.987 288.395 216.985C288.43 216.984 288.464 216.975 288.496 216.96L290.867 216.051C291.248 215.904 291.395 216.439 291.128 216.946L289.404 220.173C289.3 220.362 289.256 220.579 289.277 220.794L289.678 223.713C289.745 224.174 289.351 224.782 289.01 224.742L286.893 224.481C286.805 224.482 286.719 224.505 286.643 224.548C286.567 224.591 286.503 224.653 286.458 224.729L284.341 227.441C284 227.875 283.606 227.721 283.673 227.18L284.074 223.793C284.094 223.711 284.093 223.625 284.07 223.543C284.048 223.461 284.006 223.387 283.947 223.326L282.223 222.083C281.956 221.889 282.103 221.181 282.484 220.894L284.855 219.064C285.021 218.924 285.142 218.738 285.203 218.529L286.265 215.049C286.432 214.495 286.919 214.214 287.086 214.568Z" fill="white"/>
<path d="M303.045 210.073C303.252 209.685 303.219 209.291 303.045 209.184L301.348 208.196C301.31 208.179 301.269 208.17 301.228 208.17C301.187 208.17 301.146 208.179 301.108 208.196L299.545 208.797L299.03 207.701C299.008 207.646 298.968 207.599 298.917 207.568C298.703 207.454 297.26 206.613 297.213 206.586C297 206.466 296.639 206.74 296.499 207.194L295.436 210.674C295.378 210.882 295.26 211.068 295.096 211.208L292.718 213.039C292.344 213.333 292.19 214.034 292.464 214.235L294.181 215.477C294.241 215.535 294.286 215.609 294.309 215.69C294.332 215.771 294.334 215.856 294.314 215.938L293.907 219.325C293.907 219.572 293.947 219.739 294.06 219.806L295.764 220.794C295.897 220.868 296.098 220.794 296.278 220.574L298.402 217.862C298.447 217.788 298.509 217.726 298.584 217.683C298.659 217.639 298.743 217.616 298.83 217.615L300.954 217.875C301.295 217.915 301.689 217.307 301.622 216.846L301.215 213.927C301.199 213.712 301.245 213.496 301.348 213.306L303.045 210.073Z" fill="#B4D7FF"/>
<path opacity="0.15" d="M303.025 209.177C302.988 209.161 302.948 209.152 302.908 209.152C302.868 209.152 302.828 209.161 302.791 209.177L300.413 210.086C300.382 210.101 300.348 210.11 300.314 210.111C300.279 210.113 300.245 210.107 300.213 210.094C300.181 210.082 300.152 210.063 300.128 210.038C300.103 210.014 300.085 209.984 300.072 209.952L299.525 208.79L301.088 208.195C301.123 208.175 301.164 208.165 301.205 208.165C301.245 208.165 301.286 208.175 301.321 208.195L303.025 209.177Z" fill="white"/>
<path opacity="0.15" d="M297.126 211.649C297.066 211.859 296.945 212.047 296.779 212.19L294.408 214.02C294.298 214.107 294.209 214.216 294.147 214.341L292.444 213.352C292.507 213.23 292.593 213.121 292.698 213.032L295.069 211.201C295.239 211.064 295.363 210.877 295.423 210.667L297.126 211.649Z" fill="white"/>
<path opacity="0.1" d="M298.91 207.574C298.696 207.434 298.329 207.708 298.189 208.169L297.126 211.649L295.423 210.667L296.485 207.187C296.619 206.733 296.979 206.459 297.193 206.579C297.24 206.579 298.676 207.448 298.897 207.561L298.91 207.574Z" fill="black"/>
<path opacity="0.25" d="M295.864 216.432L294.18 215.463L292.464 214.221C292.263 214.074 292.29 213.673 292.464 213.346L294.167 214.334C293.993 214.655 293.973 215.062 294.167 215.203L295.864 216.432Z" fill="black"/>
<path opacity="0.15" d="M295.59 220.306C295.59 220.56 295.637 220.727 295.757 220.793L294.04 219.771C293.927 219.705 293.86 219.544 293.887 219.297L294.294 215.904C294.31 215.825 294.308 215.744 294.288 215.667C294.268 215.589 294.232 215.517 294.181 215.456L295.864 216.425C295.916 216.485 295.954 216.557 295.974 216.635C295.993 216.713 295.995 216.794 295.977 216.872L295.59 220.306Z" fill="black"/>
<path d="M299.01 207.694L300.072 209.952C300.085 209.985 300.105 210.014 300.13 210.039C300.155 210.063 300.184 210.082 300.217 210.095C300.249 210.107 300.284 210.113 300.319 210.111C300.354 210.11 300.388 210.101 300.42 210.086L302.791 209.177C303.172 209.03 303.319 209.565 303.045 210.072L301.328 213.299C301.225 213.489 301.179 213.705 301.195 213.92L301.602 216.839C301.669 217.3 301.275 217.908 300.934 217.868L298.81 217.607C298.723 217.609 298.639 217.632 298.564 217.676C298.489 217.719 298.427 217.78 298.382 217.855L296.258 220.567C295.924 221.001 295.53 220.847 295.59 220.306L295.998 216.919C296.019 216.837 296.018 216.75 295.994 216.668C295.971 216.585 295.926 216.511 295.864 216.452L294.147 215.209C293.873 215.016 294.027 214.308 294.401 214.02L296.779 212.19C296.944 212.049 297.064 211.863 297.126 211.656L298.189 208.169C298.356 207.621 298.843 207.34 299.01 207.694Z" fill="#B4D7FF"/>
<path opacity="0.5" d="M299.01 207.694L300.072 209.952C300.085 209.985 300.105 210.014 300.13 210.039C300.155 210.063 300.184 210.082 300.217 210.095C300.249 210.107 300.284 210.113 300.319 210.111C300.354 210.11 300.388 210.101 300.42 210.086L302.791 209.177C303.172 209.03 303.319 209.565 303.045 210.072L301.328 213.299C301.225 213.489 301.179 213.705 301.195 213.92L301.602 216.839C301.669 217.3 301.275 217.908 300.934 217.868L298.81 217.607C298.723 217.609 298.639 217.632 298.564 217.676C298.489 217.719 298.427 217.78 298.382 217.855L296.258 220.567C295.924 221.001 295.53 220.847 295.59 220.306L295.998 216.919C296.019 216.837 296.018 216.75 295.994 216.668C295.971 216.585 295.926 216.511 295.864 216.452L294.147 215.209C293.873 215.016 294.027 214.308 294.401 214.02L296.779 212.19C296.944 212.049 297.064 211.863 297.126 211.656L298.189 208.169C298.356 207.621 298.843 207.34 299.01 207.694Z" fill="white"/>
<path d="M314.969 203.198C315.176 202.811 315.142 202.417 314.969 202.303L313.265 201.321C313.229 201.304 313.189 201.296 313.148 201.296C313.108 201.296 313.068 201.304 313.031 201.321L311.468 201.922L310.954 200.827C310.927 200.774 310.888 200.729 310.84 200.693C310.62 200.58 309.177 199.738 309.137 199.711C308.917 199.591 308.562 199.858 308.422 200.319L307.36 203.8C307.302 204.009 307.181 204.196 307.013 204.334L304.608 206.158C304.227 206.451 304.08 207.153 304.354 207.353L306.071 208.596C306.132 208.654 306.176 208.728 306.199 208.808C306.223 208.889 306.224 208.975 306.204 209.057L305.81 212.423C305.81 212.671 305.85 212.838 305.964 212.904L307.667 213.893C307.801 213.967 308.001 213.893 308.182 213.673L310.306 210.96C310.35 210.886 310.413 210.825 310.488 210.781C310.562 210.738 310.647 210.715 310.733 210.713L312.858 210.974C313.192 211.014 313.586 210.406 313.526 209.945L313.118 207.026C313.099 206.81 313.146 206.594 313.252 206.405L314.969 203.198Z" fill="#B4D7FF"/>
<path opacity="0.15" d="M314.949 202.303C314.912 202.285 314.872 202.276 314.832 202.276C314.791 202.276 314.751 202.285 314.715 202.303L312.337 203.212C312.306 203.227 312.272 203.236 312.238 203.237C312.203 203.239 312.169 203.233 312.137 203.22C312.105 203.208 312.076 203.189 312.051 203.164C312.027 203.14 312.008 203.11 311.996 203.078L311.448 201.916L313.011 201.315C313.047 201.296 313.088 201.286 313.128 201.286C313.169 201.286 313.209 201.296 313.245 201.315L314.949 202.303Z" fill="white"/>
<path opacity="0.15" d="M309.05 204.775C308.987 204.986 308.864 205.174 308.696 205.316L306.325 207.146C306.218 207.233 306.131 207.343 306.071 207.467L304.368 206.478C304.429 206.355 304.515 206.246 304.621 206.158L306.993 204.327C307.161 204.189 307.282 204.003 307.34 203.793L309.05 204.775Z" fill="white"/>
<path opacity="0.1" d="M310.834 200.694C310.62 200.56 310.253 200.834 310.112 201.295L309.05 204.775L307.34 203.793L308.402 200.313C308.542 199.859 308.903 199.585 309.117 199.705C309.164 199.705 310.6 200.573 310.82 200.687L310.834 200.694Z" fill="black"/>
<path opacity="0.25" d="M307.788 209.578L306.098 208.61L304.381 207.367C304.18 207.22 304.207 206.82 304.381 206.492L306.084 207.481C305.911 207.801 305.884 208.209 306.084 208.349L307.788 209.578Z" fill="black"/>
<path opacity="0.15" d="M307.514 213.432C307.514 213.686 307.554 213.853 307.681 213.913L305.944 212.925C305.83 212.858 305.764 212.698 305.79 212.444L306.198 209.057C306.214 208.978 306.212 208.897 306.191 208.819C306.17 208.741 306.131 208.669 306.078 208.609L307.768 209.578C307.821 209.638 307.858 209.71 307.878 209.788C307.898 209.866 307.899 209.947 307.881 210.026L307.514 213.432Z" fill="black"/>
<path d="M310.934 200.821L311.996 203.079C312.009 203.111 312.029 203.14 312.053 203.165C312.078 203.189 312.108 203.209 312.141 203.221C312.173 203.234 312.208 203.239 312.243 203.238C312.278 203.236 312.312 203.228 312.343 203.212L314.715 202.304C315.089 202.157 315.243 202.691 314.969 203.199L313.252 206.412C313.146 206.601 313.099 206.817 313.118 207.033L313.526 209.952C313.586 210.413 313.192 211.021 312.858 210.981L310.734 210.721C310.647 210.722 310.562 210.745 310.488 210.789C310.413 210.832 310.35 210.894 310.306 210.968L308.182 213.68C307.848 214.114 307.454 213.954 307.514 213.419L307.921 210.032C307.94 209.95 307.938 209.863 307.915 209.781C307.892 209.7 307.848 209.625 307.788 209.565L306.071 208.322C305.797 208.129 305.951 207.421 306.325 207.133L308.703 205.303C308.864 205.16 308.982 204.975 309.043 204.769L310.106 201.282C310.279 200.747 310.767 200.46 310.934 200.821Z" fill="#B4D7FF"/>
<path opacity="0.5" d="M310.934 200.821L311.996 203.079C312.009 203.111 312.029 203.14 312.053 203.165C312.078 203.189 312.108 203.209 312.141 203.221C312.173 203.234 312.208 203.239 312.243 203.238C312.278 203.236 312.312 203.228 312.343 203.212L314.715 202.304C315.089 202.157 315.243 202.691 314.969 203.199L313.252 206.412C313.146 206.601 313.099 206.817 313.118 207.033L313.526 209.952C313.586 210.413 313.192 211.021 312.858 210.981L310.734 210.721C310.647 210.722 310.562 210.745 310.488 210.789C310.413 210.832 310.35 210.894 310.306 210.968L308.182 213.68C307.848 214.114 307.454 213.954 307.514 213.419L307.921 210.032C307.94 209.95 307.938 209.863 307.915 209.781C307.892 209.7 307.848 209.625 307.788 209.565L306.071 208.322C305.797 208.129 305.951 207.421 306.325 207.133L308.703 205.303C308.864 205.16 308.982 204.975 309.043 204.769L310.106 201.282C310.279 200.747 310.767 200.46 310.934 200.821Z" fill="white"/>
<path d="M319.518 38.0763L314.174 40.3676L313.031 46.0656C312.999 46.2221 312.923 46.3665 312.813 46.4825C312.703 46.5986 312.563 46.6817 312.408 46.7226C312.254 46.7635 312.091 46.7606 311.938 46.7141C311.785 46.6677 311.648 46.5796 311.542 46.4597L307.714 42.0843L301.936 42.7523C301.77 42.7774 301.601 42.7533 301.449 42.6831C301.297 42.6129 301.169 42.4997 301.081 42.3575C300.993 42.2152 300.949 42.0502 300.953 41.8829C300.958 41.7156 301.012 41.5534 301.108 41.4163L304.08 36.4264L301.662 31.1425C301.603 31.0006 301.584 30.8455 301.606 30.6934C301.627 30.5414 301.69 30.398 301.786 30.2784C301.882 30.1588 302.009 30.0674 302.153 30.0137C302.297 29.9601 302.453 29.9462 302.604 29.9735L308.269 31.2627L312.544 27.3282C312.661 27.2184 312.807 27.144 312.965 27.1133C313.123 27.0827 313.286 27.0972 313.436 27.155C313.586 27.2129 313.716 27.3119 313.813 27.4406C313.909 27.5693 313.967 27.7225 313.98 27.8826L314.508 33.6675L319.571 36.5132C319.72 36.5853 319.845 36.6992 319.931 36.8411C320.017 36.9829 320.059 37.1466 320.053 37.3122C320.048 37.4777 319.994 37.6381 319.899 37.7738C319.804 37.9094 319.671 38.0145 319.518 38.0763Z" fill="#E0E0E0"/>
<path d="M290.066 28.1761C290.019 28.2377 289.962 28.2918 289.899 28.3364C289.785 28.418 289.651 28.4662 289.512 28.4757C289.373 28.4851 289.234 28.4554 289.11 28.3898L286.138 26.8267L283.159 28.3898C283.035 28.4554 282.896 28.4851 282.757 28.4757C282.617 28.4662 282.484 28.418 282.37 28.3364C282.256 28.2553 282.167 28.1428 282.115 28.0124C282.063 27.8821 282.049 27.7394 282.076 27.6016L282.644 24.2616L280.233 21.9169C280.132 21.8196 280.061 21.6958 280.028 21.5598C279.995 21.4239 280.001 21.2814 280.046 21.1487C280.087 21.0158 280.166 20.8975 280.273 20.8076C280.379 20.7177 280.509 20.66 280.647 20.641L283.987 20.1601L285.476 17.1407C285.538 17.016 285.633 16.9111 285.751 16.8379C285.869 16.7646 286.006 16.7261 286.144 16.7266C286.283 16.7276 286.419 16.7668 286.537 16.8398C286.654 16.9129 286.75 17.017 286.812 17.1407L288.302 20.1601L291.642 20.641C291.78 20.6612 291.91 20.7196 292.016 20.8096C292.123 20.8996 292.202 21.0176 292.246 21.1503C292.289 21.2831 292.294 21.4252 292.26 21.5606C292.227 21.6961 292.156 21.8195 292.056 21.9169L289.645 24.2616L290.219 27.6016C290.245 27.8058 290.19 28.012 290.066 28.1761ZM280.56 21.2356L280.52 21.3224C280.503 21.3723 280.501 21.4259 280.514 21.4768C280.527 21.5278 280.555 21.5739 280.593 21.6096L283.172 24.128L282.564 27.6818C282.556 27.7341 282.562 27.7876 282.582 27.8365C282.603 27.8855 282.636 27.9278 282.679 27.9589C282.722 27.99 282.773 28.0087 282.825 28.0128C282.878 28.0169 282.931 28.0064 282.978 27.9824L286.171 26.3057L289.358 27.9824C289.403 28.0087 289.455 28.0226 289.508 28.0226C289.561 28.0226 289.612 28.0087 289.658 27.9824C289.703 27.9519 289.737 27.9091 289.757 27.8592C289.777 27.8093 289.782 27.7546 289.772 27.7018L289.164 24.148L291.742 21.6297C291.78 21.593 291.806 21.5469 291.819 21.4963C291.832 21.4457 291.831 21.3925 291.816 21.3424C291.801 21.2916 291.771 21.2463 291.731 21.2119C291.691 21.1775 291.641 21.1556 291.589 21.1487L288.015 20.6277L286.385 17.3678C286.363 17.3193 286.327 17.2783 286.282 17.2498C286.237 17.2213 286.184 17.2066 286.131 17.2075C286.083 17.2128 286.037 17.2303 285.997 17.2584C285.957 17.2864 285.925 17.3241 285.904 17.3678L284.314 20.601L280.74 21.122C280.668 21.1366 280.604 21.177 280.56 21.2356Z" fill="#E0E0E0"/>
<path d="M252.865 72.8118C247.835 69.8993 240.921 70.2934 233.279 74.7022C217.915 83.5866 205.43 105.343 205.43 123.306C205.43 132.344 208.596 138.67 213.693 141.629C214.876 142.297 219.498 144.969 219.498 144.969C219.282 147.002 218.579 148.953 217.45 150.657C216.321 152.362 214.799 153.77 213.012 154.762C212.718 154.929 212.898 155.216 213.159 155.363L220.22 159.445C220.315 159.501 220.423 159.534 220.534 159.538C227.487 159.538 235.537 154.862 237.781 145.149C238.623 144.749 239.471 144.314 240.333 143.813C255.697 134.936 268.182 113.172 268.182 95.2165C268.182 86.1718 265.022 79.8525 259.925 76.8732L252.865 72.8118Z" fill="#37474F"/>
<path d="M240.333 78.7767C224.969 87.6544 212.484 109.418 212.484 127.374C212.484 139.565 218.222 146.859 226.719 147.527C226.399 151.402 225.27 155.757 220.039 158.837C219.625 159.084 220.166 159.545 220.513 159.545C227.467 159.545 235.517 154.869 237.761 145.156C238.603 144.755 239.451 144.321 240.313 143.82C255.677 134.942 268.162 113.179 268.162 95.2229C268.162 77.267 255.71 69.899 240.333 78.7767Z" fill="#455A64"/>
<path d="M220.059 158.837C219.805 158.997 219.919 159.231 220.133 159.392L213.159 155.384C212.898 155.223 212.718 154.949 213.012 154.776C214.803 153.781 216.328 152.369 217.457 150.66C218.586 148.95 219.286 146.994 219.498 144.956L220.266 145.41L220.974 145.824C222.744 146.797 224.705 147.372 226.719 147.508C226.405 151.402 225.27 155.758 220.059 158.837Z" fill="#263238"/>
<path d="M237.394 130.186C236.652 129.659 236.278 128.71 236.278 127.341C236.294 125.914 236.671 124.514 237.374 123.272C238.012 122.031 238.983 120.992 240.179 120.273C241.315 119.618 242.248 119.541 242.978 120.039C243.706 120.534 244.074 121.469 244.074 122.838C244.052 124.29 243.669 125.714 242.958 126.98C242.336 128.234 241.373 129.287 240.179 130.019C239.071 130.654 238.142 130.714 237.394 130.186ZM236.399 93.8738L243.954 89.5117L242.691 114.976L237.661 117.882L236.399 93.8738Z" fill="#FAFAFA"/>
<path opacity="0.2" d="M244.047 141.382C252.25 135.37 259.324 125.837 263.653 115.604C255.45 121.622 248.376 131.148 244.047 141.382Z" fill="black"/>
<path d="M296.498 176.185C293.653 176.218 291.535 174.227 290.206 171.722C298.73 161.241 304.494 147.28 304.494 135.069C304.494 126.018 301.321 119.658 296.211 116.719L289.164 112.658C284.134 109.752 277.227 110.153 269.591 114.555C254.227 123.439 241.743 145.196 241.743 163.159C241.743 172.197 244.902 178.523 249.999 181.495C251.188 182.163 255.871 184.875 257.026 185.55C262.063 188.483 268.99 188.095 276.646 183.673C278.696 182.48 280.642 181.117 282.464 179.598C287.634 183.693 293.94 179.231 296.438 177.093C296.772 176.813 296.812 176.185 296.498 176.185Z" fill="#E0E0E0"/>
<path d="M264.321 187.04C255.009 187.04 249.231 179.458 249.231 167.26C249.231 149.465 261.629 127.848 276.859 119.037C281.121 116.579 285.196 115.33 288.97 115.33C298.275 115.33 304.06 122.905 304.06 135.11C304.06 146.78 298.623 160.721 289.872 171.482L289.692 171.709L289.825 171.963C291.395 174.922 293.673 176.579 296.251 176.639C296.233 176.695 296.201 176.746 296.158 176.786C294.381 178.309 290.854 180.854 287.2 180.854C285.573 180.861 283.993 180.304 282.731 179.278L282.457 179.064L282.183 179.284C280.378 180.777 278.452 182.118 276.425 183.292C272.17 185.757 268.095 187.04 264.321 187.04Z" fill="#FAFAFA"/>
<path d="M288.97 114.896V115.764C298.008 115.764 303.626 123.179 303.626 135.103C303.626 146.686 298.229 160.52 289.538 171.208L289.171 171.655L289.444 172.163C290.887 174.889 292.918 176.565 295.249 176.986C293.399 178.462 290.333 180.433 287.2 180.433C285.67 180.44 284.185 179.916 282.998 178.95L282.45 178.516L281.909 178.963C280.123 180.454 278.218 181.794 276.211 182.971C272.016 185.39 268.015 186.619 264.321 186.619C255.283 186.619 249.665 179.204 249.665 167.247C249.665 149.591 261.963 128.129 277.053 119.398C281.248 116.98 285.249 115.751 288.943 115.751V114.896M288.943 114.896C285.229 114.896 281.048 116.105 276.619 118.663C261.255 127.541 248.77 149.298 248.77 167.26C248.77 180.052 255.096 187.474 264.294 187.474C268.008 187.474 272.19 186.265 276.619 183.706C278.669 182.513 280.615 181.15 282.437 179.631C283.773 180.722 285.448 181.313 287.173 181.301C290.994 181.301 294.648 178.629 296.412 177.126C296.746 176.846 296.786 176.218 296.472 176.218H296.405C293.599 176.218 291.502 174.247 290.179 171.756C298.703 161.275 304.468 147.314 304.468 135.103C304.468 122.31 298.142 114.896 288.943 114.896Z" fill="#B4D7FF"/>
<path d="M275.216 154.208C276.026 152.264 276.957 150.372 278.002 148.543C278.721 147.288 279.377 145.997 279.966 144.675C280.371 143.769 280.587 142.789 280.6 141.796C280.6 140.46 280.199 139.639 279.398 139.318C278.596 138.997 277.541 139.231 276.211 139.986C274.897 140.757 273.746 141.779 272.825 142.992C271.795 144.336 270.955 145.815 270.326 147.388L265.417 146.379C266.515 143.478 268.071 140.771 270.026 138.363C271.938 135.999 274.271 134.008 276.906 132.491C280.023 130.71 282.52 130.153 284.394 130.821C286.269 131.489 287.209 133.4 287.213 136.553C287.222 137.976 287.038 139.394 286.666 140.768C286.336 142.012 285.889 143.222 285.33 144.382C284.802 145.464 284.114 146.753 283.279 148.249C282.469 149.63 281.738 151.055 281.088 152.518C280.64 153.574 280.413 154.711 280.42 155.858L274.294 159.398C274.27 157.625 274.582 155.864 275.216 154.208ZM274.548 171.395C273.807 170.868 273.433 169.919 273.433 168.543C273.449 167.116 273.826 165.717 274.528 164.475C275.166 163.236 276.135 162.197 277.327 161.476C278.469 160.808 279.398 160.741 280.133 161.242C280.867 161.743 281.228 162.678 281.228 164.047C281.206 165.497 280.822 166.918 280.113 168.182C279.49 169.438 278.524 170.492 277.327 171.222C276.251 171.863 275.33 171.916 274.581 171.395H274.548Z" fill="#455A64"/>
<path d="M134.121 123.78L103.393 141.576L115.597 162.324C115.833 162.884 116.243 163.352 116.766 163.66C118.223 164.482 126.847 169.478 127.321 169.752C127.691 169.966 128.104 170.092 128.53 170.123C128.956 170.154 129.383 170.088 129.78 169.93C130.177 169.771 130.532 169.525 130.82 169.21C131.108 168.895 131.321 168.518 131.442 168.109L144.696 129.913L134.121 123.78Z" fill="#B4D7FF"/>
<path opacity="0.2" d="M134.121 123.78L103.393 141.576L115.597 162.324C115.833 162.884 116.243 163.352 116.766 163.66C118.223 164.482 126.847 169.478 127.321 169.752C127.691 169.966 128.104 170.092 128.53 170.123C128.956 170.154 129.383 170.088 129.78 169.93C130.177 169.771 130.532 169.525 130.82 169.21C131.108 168.895 131.321 168.518 131.442 168.109L144.696 129.913L134.121 123.78Z" fill="black"/>
<path d="M113.968 147.681L126.172 168.429C126.405 168.956 126.795 169.399 127.288 169.697C127.781 169.996 128.353 170.135 128.929 170.097C129.504 170.06 130.053 169.846 130.503 169.485C130.952 169.125 131.28 168.635 131.442 168.082L144.696 129.886L113.968 147.681Z" fill="#B4D7FF"/>
<path d="M168.403 17.3682L52.5248 84.255C51.7479 84.7586 51.101 85.4386 50.6366 86.2396C50.1723 87.0405 49.9037 87.9398 49.8528 88.8642V169.285C49.902 170.206 50.1701 171.102 50.6347 171.899C51.0994 172.696 51.7473 173.371 52.5248 173.867L62.0571 179.211C62.8861 179.628 63.8012 179.846 64.7291 179.846C65.6571 179.846 66.5722 179.628 67.4011 179.211L183.286 112.284C184.062 111.78 184.708 111.099 185.172 110.299C185.636 109.498 185.905 108.599 185.958 107.675V27.2546C185.908 26.3335 185.64 25.4375 185.175 24.6407C184.71 23.8439 184.063 23.1691 183.286 22.6721L173.76 17.3281C172.926 16.9161 172.007 16.7051 171.077 16.7121C170.146 16.719 169.231 16.9437 168.403 17.3682Z" fill="#B4D7FF"/>
<path opacity="0.3" d="M185.911 26.767C185.697 25.431 184.609 24.95 183.279 25.7116L67.4079 92.6184C66.6184 93.1115 65.9713 93.8023 65.5309 94.6224L50.6946 86.1722C51.1398 85.4011 51.7685 84.7517 52.5249 84.2818L168.41 17.3682C169.239 16.9527 170.154 16.7363 171.082 16.7363C172.009 16.7363 172.924 16.9527 173.754 17.3682L183.279 22.7122C183.981 23.1626 184.578 23.7571 185.032 24.4562C185.486 25.1553 185.785 25.943 185.911 26.767Z" fill="white"/>
<path d="M64.7424 177.955V97.5278C64.7934 96.6043 65.062 95.7059 65.5264 94.906C65.9907 94.1061 66.6377 93.4274 67.4144 92.9253L183.286 26.0518C184.749 25.2034 185.958 25.8915 185.958 27.5882V107.982C185.905 108.906 185.636 109.805 185.172 110.605C184.708 111.406 184.061 112.086 183.286 112.591L67.4011 179.491C65.9315 180.36 64.7424 179.652 64.7424 177.955Z" fill="#B4D7FF"/>
<path opacity="0.2" d="M67.4011 179.184C66.569 179.591 65.6551 179.802 64.7291 179.802C63.803 179.802 62.8891 179.591 62.0571 179.184L52.5314 173.84C51.7546 173.346 51.1069 172.674 50.6421 171.879C50.1774 171.084 49.9091 170.19 49.8594 169.271V88.8439C49.9068 87.8949 50.1991 86.9744 50.7077 86.1719L65.5307 94.6087C65.0421 95.3945 64.7701 96.2957 64.7424 97.2206V177.641C64.7424 179.198 65.8379 180.093 67.4011 179.184Z" fill="black"/>
<path d="M97.2539 113.561L96.0983 112.893C95.6559 112.64 95.155 112.506 94.6454 112.506C94.1357 112.506 93.6348 112.64 93.1925 112.893L86.1317 116.967V107.322L99.2045 99.7798C99.8164 99.4187 100.323 98.9038 100.675 98.2863C101.026 97.6688 101.21 96.97 101.208 96.2594V90.8486C101.21 90.1381 101.026 89.4393 100.675 88.8218C100.323 88.2043 99.8164 87.6894 99.2045 87.3283C98.5862 86.9706 97.8846 86.7822 97.1704 86.7822C96.4562 86.7822 95.7545 86.9706 95.1363 87.3283L77.0068 97.7958C75.9335 98.4147 75.0424 99.3056 74.4232 100.379C73.8039 101.452 73.4785 102.669 73.4798 103.908V154.135C73.4767 154.847 73.6601 155.547 74.0117 156.166C74.3633 156.784 74.8708 157.3 75.4838 157.662C76.1024 158.018 76.8039 158.206 77.5178 158.206C78.2318 158.206 78.9332 158.018 79.5519 157.662L84.0743 155.057C84.6872 154.695 85.1948 154.179 85.5463 153.56C85.8979 152.942 86.0813 152.241 86.0783 151.53V131.824L97.2071 125.398C97.6481 125.141 98.014 124.774 98.2684 124.332C98.5228 123.89 98.6567 123.389 98.6567 122.879V116.092C98.6658 115.584 98.541 115.083 98.2947 114.638C98.0485 114.194 97.6895 113.822 97.2539 113.561Z" fill="#E0E0E0"/>
<path opacity="0.1" d="M79.9661 157.422L79.5787 157.649C78.96 158.004 78.2588 158.191 77.5453 158.191C76.8317 158.19 76.1307 158.003 75.5125 157.646C74.8944 157.29 74.3806 156.777 74.0227 156.16C73.6648 155.543 73.4753 154.842 73.4731 154.128V103.902C73.4749 102.735 73.7664 101.587 74.3215 100.562L78.3896 102.906C77.8322 103.931 77.5405 105.079 77.5413 106.246V156.006C77.5424 156.289 77.6176 156.567 77.7593 156.813C77.901 157.059 78.1043 157.263 78.3492 157.406C78.5941 157.549 78.872 157.626 79.1556 157.629C79.4392 157.631 79.7185 157.56 79.9661 157.422Z" fill="black"/>
<path d="M86.1318 107.321V121.67L97.2406 115.264C97.3893 115.176 97.5586 115.13 97.7311 115.129C97.9036 115.129 98.0732 115.174 98.2226 115.26C98.372 115.346 98.4958 115.47 98.5815 115.62C98.6672 115.77 98.7116 115.94 98.7102 116.112V122.912C98.7099 123.42 98.5765 123.918 98.3233 124.358C98.0701 124.797 97.706 125.163 97.2674 125.417L86.1318 131.844V151.543C86.1346 152.253 85.9509 152.951 85.5992 153.567C85.2476 154.184 84.7402 154.698 84.1278 155.057L80.0129 157.435C79.7658 157.578 79.4852 157.654 79.1994 157.654C78.9137 157.654 78.6329 157.579 78.3856 157.436C78.1382 157.293 77.9329 157.087 77.7906 156.84C77.6482 156.592 77.5737 156.311 77.5747 156.025V106.246C77.5748 105.007 77.9008 103.79 78.5199 102.717C79.139 101.645 80.0294 100.753 81.1018 100.134L99.0576 89.7662C99.2812 89.6371 99.535 89.5692 99.7932 89.5693C100.051 89.5695 100.305 89.6377 100.529 89.767C100.752 89.8964 100.938 90.0824 101.066 90.3062C101.195 90.53 101.263 90.7839 101.262 91.0421V96.2725C101.264 96.9804 101.08 97.6763 100.728 98.2906C100.376 98.9049 99.8693 99.416 99.258 99.7729L86.1318 107.321Z" fill="#FAFAFA"/>
<path d="M124.916 76.9811C124.71 76.2837 124.349 75.6421 123.859 75.1045C123.37 74.5669 122.764 74.1473 122.089 73.8772C121.414 73.6072 120.687 73.4937 119.961 73.5454C119.236 73.597 118.532 73.8125 117.902 74.1755L113.406 76.774C112.827 77.1077 112.324 77.5588 111.93 78.0983C111.535 78.6379 111.257 79.2539 111.115 79.9069L97.7082 140.949C97.6032 141.463 97.6621 141.998 97.8766 142.477C98.091 142.956 98.4503 143.356 98.9039 143.621L100.133 144.329C100.514 144.549 100.946 144.664 101.386 144.664C101.825 144.664 102.257 144.549 102.638 144.329L108.056 141.203C108.809 140.741 109.424 140.083 109.832 139.299C110.289 138.507 110.625 137.652 110.828 136.76L113.005 125.632L123.961 119.306L125.096 123.828C125.257 124.418 125.624 124.93 126.132 125.271C126.586 125.538 129.745 127.348 130.2 127.622C130.493 127.748 130.815 127.792 131.131 127.749C131.448 127.707 131.747 127.58 131.997 127.382L138.61 123.561L124.916 76.9811ZM116.011 110.268L118.356 98.1968L118.496 97.5288L120.981 107.395L116.011 110.268Z" fill="#E0E0E0"/>
<path opacity="0.1" d="M130.146 127.589C129.552 127.235 126.572 125.532 126.138 125.271C125.631 124.93 125.264 124.418 125.103 123.828L123.967 119.306L127 117.556L129.171 126.173C129.331 126.739 129.674 127.237 130.146 127.589Z" fill="black"/>
<path opacity="0.1" d="M125.049 109.74L120.981 107.389L118.496 97.5289C118.496 97.5289 118.496 97.5289 118.496 97.4888C118.71 96.5269 118.924 95.4313 119.164 94.2156C119.452 92.6992 119.719 91.0827 119.973 89.3525C120.262 90.742 120.549 92.0223 120.834 93.1935C121.122 94.3625 121.389 95.3645 121.643 96.2062L125.049 109.74Z" fill="black"/>
<path opacity="0.1" d="M101.85 142.953C101.814 143.113 101.82 143.28 101.867 143.437C101.915 143.595 102.003 143.737 102.122 143.85C102.241 143.963 102.388 144.043 102.547 144.083C102.707 144.122 102.874 144.12 103.032 144.075V144.129L102.651 144.342C102.271 144.562 101.839 144.678 101.399 144.678C100.959 144.678 100.527 144.562 100.146 144.342L98.9039 143.621C98.4503 143.356 98.091 142.956 97.8766 142.477C97.6621 141.998 97.6032 141.463 97.7082 140.949L111.108 79.9337C111.231 79.3693 111.458 78.8325 111.776 78.3506L115.844 80.7019C115.522 81.1794 115.295 81.7147 115.176 82.2784L101.85 142.953Z" fill="black"/>
<path d="M138.617 123.581L131.997 127.402C131.255 127.829 130.661 127.909 130.206 127.642C129.7 127.3 129.333 126.788 129.171 126.199L127 117.569L112.972 125.645L110.801 136.774C110.592 137.666 110.254 138.523 109.799 139.319C109.392 140.102 108.778 140.759 108.022 141.216L103.233 143.988C103.071 144.08 102.887 144.123 102.702 144.112C102.517 144.101 102.339 144.037 102.19 143.928C102.04 143.819 101.925 143.669 101.859 143.495C101.793 143.322 101.778 143.134 101.816 142.953L115.143 82.2582C115.286 81.6063 115.564 80.9916 115.959 80.4533C116.353 79.915 116.856 79.4649 117.434 79.1319L121.756 76.6336C122.064 76.4565 122.407 76.3514 122.761 76.3262C123.115 76.3011 123.469 76.3565 123.799 76.4883C124.128 76.6201 124.423 76.8249 124.662 77.0873C124.9 77.3497 125.076 77.6628 125.176 78.003L138.617 123.581ZM125.049 109.753L121.643 96.1926C121.389 95.3576 121.122 94.349 120.834 93.18C120.547 92.011 120.26 90.7284 119.973 89.339C119.726 91.0691 119.452 92.679 119.171 94.202C118.891 95.725 118.61 97.0343 118.356 98.1699L114.976 115.538L125.049 109.753Z" fill="#FAFAFA"/>
<path d="M170.28 100.201C171.446 98.1951 172.471 96.1103 173.346 93.9615C174.249 91.7464 175.008 89.4748 175.617 87.1613C176.231 84.8235 176.7 82.4497 177.02 80.0538C177.348 77.6338 177.513 75.1946 177.514 72.7525C177.585 69.1622 177.126 65.5809 176.151 62.1247C175.456 59.5273 174.125 57.1442 172.277 55.1908C171.695 54.6334 171.044 54.153 170.34 53.7613L166.332 51.4367C165.063 50.7011 163.635 50.2818 162.17 50.2142C159.819 50.0806 157.214 50.8399 154.355 52.4921C151.362 54.2492 148.711 56.5299 146.526 59.2255C144.116 62.1505 142.087 65.3692 140.487 68.8047C137.044 76.214 135.248 84.2817 135.223 92.4518C135.154 96.0474 135.618 99.6334 136.599 103.093C137.292 105.698 138.629 108.087 140.487 110.04C141.066 110.615 141.72 111.109 142.431 111.51C143.099 111.884 145.737 113.42 146.392 113.801C147.677 114.545 149.124 114.964 150.607 115.024C152.958 115.139 155.568 114.371 158.436 112.719C159.656 112.015 160.816 111.21 161.903 110.314L163.56 112.218C163.785 112.45 164.042 112.65 164.321 112.812C164.789 113.086 168.115 114.997 168.369 115.15C168.815 115.425 169.337 115.551 169.859 115.511C170.826 115.396 171.755 115.065 172.578 114.543L179.598 110.495L170.28 100.201ZM164.014 83.4339C163.588 85.7906 162.905 88.0934 161.976 90.3009C161.162 92.257 160.071 94.086 158.737 95.7317C157.518 97.2336 156.038 98.5031 154.368 99.4792C153.144 100.272 151.735 100.732 150.28 100.815C149.548 99.6287 149.026 98.3248 148.737 96.9608C148.223 94.6005 147.985 92.1884 148.029 89.7732C148.016 87.0983 148.253 84.4281 148.737 81.7973C149.151 79.4418 149.823 77.139 150.741 74.9302C151.563 72.9655 152.66 71.1278 154.001 69.4727C155.228 67.9507 156.722 66.665 158.409 65.6784C159.611 64.9099 160.993 64.4679 162.417 64.3959C163.157 65.5926 163.686 66.9077 163.98 68.2836C164.504 70.6473 164.753 73.0637 164.722 75.4847C164.73 78.1593 164.493 80.8291 164.014 83.4606V83.4339Z" fill="#E0E0E0"/>
<path opacity="0.1" d="M146.225 113.727C145.377 113.24 143.045 111.884 142.431 111.536C141.72 111.135 141.066 110.641 140.487 110.067C138.629 108.113 137.292 105.725 136.599 103.119C135.618 99.6598 135.154 96.0738 135.223 92.4783C135.223 88.3648 135.685 84.2643 136.599 80.2539C137.414 76.6015 138.596 73.0408 140.126 69.626L144.194 71.9773C140.981 79.178 139.311 86.9714 139.291 94.8563C139.221 98.4497 139.685 102.034 140.667 105.491C141.359 108.098 142.696 110.49 144.555 112.445C145.063 112.932 145.623 113.362 146.225 113.727Z" fill="black"/>
<path opacity="0.1" d="M166.045 66.1331C165.652 65.6406 165.161 65.2349 164.603 64.9417C164.046 64.6485 163.433 64.4742 162.805 64.4297C162.691 64.4297 162.571 64.4297 162.457 64.4297C163.194 65.625 163.721 66.9377 164.014 68.3108C164.525 70.6671 164.762 73.0744 164.722 75.4851C164.732 78.1732 164.495 80.8565 164.014 83.5011C163.588 85.8578 162.905 88.1607 161.976 90.3681C161.162 92.3243 160.071 94.1533 158.737 95.799C157.518 97.3008 156.038 98.5704 154.368 99.5465C153.144 100.339 151.735 100.8 150.28 100.882C150.425 101.117 150.588 101.34 150.767 101.55C151.159 102.047 151.653 102.453 152.215 102.742C152.778 103.032 153.396 103.197 154.027 103.227C155.595 103.219 157.127 102.755 158.436 101.891C160.106 100.915 161.586 99.6455 162.805 98.1436C164.136 96.496 165.227 94.6674 166.045 92.7128C166.974 90.5034 167.657 88.1982 168.082 85.8391C168.564 83.1945 168.801 80.5112 168.79 77.8231C168.829 75.4191 168.591 73.0186 168.082 70.6688C167.764 69.0194 167.066 67.4666 166.045 66.1331Z" fill="black"/>
<path opacity="0.1" d="M163.059 109.339C162.678 109.686 162.297 110.007 161.903 110.341L163.56 112.245C163.785 112.476 164.042 112.676 164.321 112.839C164.775 113.106 167.908 114.903 168.329 115.157C168.07 114.998 167.832 114.808 167.621 114.589L163.059 109.339Z" fill="black"/>
<path d="M179.598 110.521L172.578 114.576C171.755 115.092 170.829 115.421 169.866 115.538C169.445 115.559 169.026 115.484 168.638 115.32C168.251 115.156 167.905 114.906 167.628 114.589L163.059 109.339C161.646 110.639 160.096 111.781 158.436 112.746C155.568 114.398 152.958 115.166 150.607 115.05C148.33 114.967 146.169 114.027 144.555 112.418C142.698 110.462 141.362 108.071 140.667 105.464C139.691 102.015 139.227 98.4409 139.291 94.8566C139.316 86.6864 141.112 78.6188 144.555 71.2094C146.158 67.7663 148.191 64.5407 150.607 61.6103C152.794 58.9162 155.445 56.6357 158.436 54.8768C161.295 53.2202 163.9 52.4609 166.252 52.5989C168.519 52.7072 170.664 53.6604 172.264 55.2709C174.115 57.2242 175.447 59.6105 176.138 62.2115C177.119 65.6554 177.582 69.2258 177.514 72.8059C177.515 75.2478 177.352 77.6871 177.027 80.1072C176.7 82.5141 176.227 84.8988 175.61 87.2481C174.999 89.5596 174.238 91.8289 173.332 94.0417C172.46 96.1917 171.436 98.2767 170.266 100.281L179.598 110.521ZM148.029 89.8132C147.985 92.2307 148.223 94.6449 148.737 97.0076C149.051 98.648 149.737 100.195 150.741 101.53C151.135 102.023 151.63 102.428 152.191 102.717C152.753 103.006 153.37 103.173 154.001 103.207C155.569 103.198 157.1 102.734 158.409 101.871C160.079 100.895 161.559 99.625 162.778 98.1231C164.112 96.4757 165.205 94.6472 166.025 92.6923C166.943 90.4815 167.615 88.1764 168.029 85.8186C168.514 83.1745 168.751 80.4908 168.737 77.8026C168.779 75.3984 168.541 72.9976 168.029 70.6483C167.715 69.0074 167.03 67.4602 166.025 66.1259C165.63 65.6332 165.138 65.2275 164.58 64.9343C164.021 64.6412 163.407 64.4669 162.778 64.4225C161.227 64.4098 159.707 64.8561 158.409 65.7051C156.72 66.6871 155.226 67.9709 154.001 69.4927C152.663 71.1495 151.565 72.9868 150.741 74.9502C149.826 77.1601 149.155 79.4625 148.737 81.8173C148.254 84.4459 148.017 87.1139 148.029 89.7865V89.8132Z" fill="#FAFAFA"/>
</svg>
