<svg viewBox="0 0 24 24" fill="none" xmlns="http://www.w3.org/2000/svg">
<g clip-path="url(#clip0_108_12)">
<path d="M12 0C18.6274 0 24 5.37258 24 12C24 18.6274 18.6274 24 12 24C5.37258 24 0 18.6274 0 12C0 5.37258 5.37258 0 12 0ZM12.7506 1.52642L12.75 5.25H11.25L11.2501 1.52637C6.04879 1.8934 1.8934 6.04879 1.52637 11.2501L5.25 11.25V12.75L1.52642 12.7506C1.8938 17.9516 6.04904 22.1066 11.2501 22.4736L11.25 18.75H12.75L12.7506 22.4736C17.9514 22.1062 22.1062 17.9514 22.4736 12.7506L18.75 12.75V11.25L22.4736 11.2501C22.1066 6.04904 17.9516 1.8938 12.7506 1.52642ZM12 8.25C14.0711 8.25 15.75 9.92893 15.75 12C15.75 14.0711 14.0711 15.75 12 15.75C9.92893 15.75 8.25 14.0711 8.25 12C8.25 9.92893 9.92893 8.25 12 8.25ZM12 9.75C10.7574 9.75 9.75 10.7574 9.75 12C9.75 13.2426 10.7574 14.25 12 14.25C13.2426 14.25 14.25 13.2426 14.25 12C14.25 10.7574 13.2426 9.75 12 9.75Z" fill="#c4c4c4"/>
</g>

</svg>
