<svg width="117" height="33" viewBox="0 0 117 33" fill="none" xmlns="http://www.w3.org/2000/svg">
<path d="M12.464 18.188C12.104 17.036 11.672 16.28 11.132 15.884C10.556 15.488 9.764 15.272 8.72 15.272H5.192V26H0.872V0.799998H5.192V11.24H8.72C9.188 11.24 9.62 11.24 9.98 11.168C10.34 11.096 10.7 10.988 10.988 10.808C11.276 10.628 11.492 10.376 11.708 10.016C11.888 9.692 12.032 9.224 12.176 8.648L13.652 0.799998H18.152L16.496 8.792C16.316 9.656 15.992 10.376 15.56 11.024C15.092 11.672 14.372 12.176 13.436 12.608V13.4C14.264 13.688 14.912 14.084 15.38 14.588C15.848 15.128 16.244 15.92 16.568 16.928L19.376 26H14.66L12.464 18.188ZM25.9426 26L19.8226 8H24.1786L28.6426 21.932H29.2906L33.7906 8H38.0386L29.7946 32.48H25.5466L27.9586 26H25.9426ZM56.5885 8V26H52.4845V11.708H44.4205V26H40.3165V8H56.5885ZM64.3541 8V22.292H71.5541V8H75.6581V22.292H78.1421V30.428H74.1461V26H60.2501V8H64.3541ZM79.6361 16.964C79.6361 15.488 79.8521 14.156 80.3561 12.968C80.8241 11.816 81.4721 10.808 82.3361 10.016C83.2001 9.224 84.2081 8.576 85.3601 8.144C86.5121 7.712 87.8081 7.496 89.1761 7.496C90.5441 7.496 91.8041 7.712 92.9561 8.144C94.1081 8.576 95.1161 9.224 95.9801 10.016C96.8441 10.808 97.4921 11.816 97.9961 12.968C98.4641 14.156 98.7161 15.488 98.7161 16.964C98.7161 18.548 98.4641 19.916 97.9961 21.104C97.4921 22.292 96.8441 23.3 95.9801 24.092C95.1161 24.884 94.1081 25.496 92.9561 25.892C91.8041 26.324 90.5441 26.504 89.1761 26.504C87.8081 26.504 86.5121 26.324 85.3601 25.892C84.2081 25.496 83.2001 24.884 82.3361 24.092C81.4721 23.3 80.8241 22.292 80.3561 21.104C79.8521 19.916 79.6361 18.548 79.6361 16.964ZM94.6481 17.036C94.6481 16.028 94.4681 15.128 94.1801 14.372C93.8921 13.616 93.4961 13.004 92.9921 12.5C92.4881 12.032 91.8761 11.672 91.2281 11.456C90.5801 11.24 89.8961 11.096 89.1761 11.096C88.4561 11.096 87.7361 11.24 87.0881 11.456C86.4401 11.672 85.8641 12.032 85.3601 12.5C84.8561 13.004 84.4241 13.616 84.1361 14.372C83.8481 15.128 83.7041 16.028 83.7041 17.036C83.7041 18.08 83.8481 18.98 84.1361 19.7C84.4241 20.42 84.8561 21.032 85.3601 21.5C85.8641 22.004 86.4401 22.364 87.0881 22.58C87.7361 22.796 88.4561 22.904 89.1761 22.904C89.8961 22.904 90.5801 22.796 91.2281 22.58C91.8761 22.364 92.4881 22.004 92.9921 21.5C93.4961 21.032 93.8921 20.42 94.1801 19.7C94.4681 18.98 94.6481 18.08 94.6481 17.036ZM110.308 8C111.388 8 112.324 8.144 113.116 8.36C113.908 8.576 114.52 8.9 115.024 9.296C115.528 9.728 115.888 10.196 116.104 10.772C116.32 11.348 116.464 11.96 116.464 12.608C116.464 13.04 116.392 13.436 116.248 13.832C116.104 14.264 115.888 14.624 115.6 14.984C115.312 15.344 114.988 15.668 114.628 15.92C114.232 16.172 113.8 16.316 113.332 16.388V17.072C114.016 17.216 114.592 17.432 115.06 17.72C115.528 18.008 115.924 18.296 116.212 18.656C116.5 19.016 116.68 19.448 116.824 19.88C116.932 20.312 117.004 20.78 117.004 21.212C117.004 22.688 116.5 23.84 115.564 24.704C114.592 25.568 113.08 26 111.064 26H101.524V8H110.308ZM105.448 11.348V15.416H110.344C111.136 15.416 111.676 15.236 112 14.804C112.288 14.372 112.468 13.904 112.468 13.328C112.468 12.716 112.252 12.248 111.856 11.888C111.46 11.528 110.884 11.348 110.092 11.348H105.448ZM105.448 18.26V22.616H110.38C111.244 22.616 111.856 22.436 112.252 22.004C112.612 21.572 112.828 21.068 112.828 20.42C112.828 19.808 112.612 19.304 112.216 18.872C111.82 18.476 111.244 18.26 110.524 18.26H105.448Z" fill="white"/>
</svg>
